<?xml version="1.0" standalone="no"?>
<!DOCTYPE svg PUBLIC "-//W3C//DTD SVG 20010904//EN"
 "http://www.w3.org/TR/2001/REC-SVG-20010904/DTD/svg10.dtd">
<svg version="1.0" xmlns="http://www.w3.org/2000/svg"
 width="1024.000000pt" height="1024.000000pt" viewBox="0 0 1024.000000 1024.000000"
 preserveAspectRatio="xMidYMid meet">

<g transform="translate(0.000000,1024.000000) scale(0.100000,-0.100000)"
fill="#000000" stroke="none">
<path d="M4917 8383 c-3 -5 84 -8 193 -8 109 0 196 3 193 8 -2 4 -89 7 -193 7
-104 0 -191 -3 -193 -7z"/>
<path d="M4838 8373 c12 -2 32 -2 45 0 12 2 2 4 -23 4 -25 0 -35 -2 -22 -4z"/>
<path d="M5330 8363 c0 -14 2 -15 9 -4 6 9 23 12 55 10 25 -2 46 -1 46 3 0 5
-25 8 -55 8 -46 0 -55 -3 -55 -17z"/>
<path d="M4738 8363 c12 -2 32 -2 45 0 12 2 2 4 -23 4 -25 0 -35 -2 -22 -4z"/>
<path d="M5468 8363 c12 -2 30 -2 40 0 9 3 -1 5 -23 4 -22 0 -30 -2 -17 -4z"/>
<path d="M4658 8353 c12 -2 30 -2 40 0 9 3 -1 5 -23 4 -22 0 -30 -2 -17 -4z"/>
<path d="M5550 8353 c14 -2 78 -13 144 -24 65 -11 120 -18 123 -16 7 7 -219
47 -257 46 -26 -1 -29 -3 -10 -6z"/>
<path d="M4593 8343 c9 -2 23 -2 30 0 6 3 -1 5 -18 5 -16 0 -22 -2 -12 -5z"/>
<path d="M4533 8333 c9 -2 23 -2 30 0 6 3 -1 5 -18 5 -16 0 -22 -2 -12 -5z"/>
<path d="M4425 8315 c-27 -7 -41 -13 -30 -13 11 0 43 6 70 13 28 7 41 13 30
13 -11 0 -42 -6 -70 -13z"/>
<path d="M5875 8294 c28 -7 55 -13 60 -13 17 2 -69 27 -90 27 -11 0 3 -6 30
-14z"/>
<path d="M4245 8272 c-49 -14 -85 -27 -80 -28 6 -2 55 10 110 26 55 15 91 28
80 28 -11 0 -60 -12 -110 -26z"/>
<path d="M5955 8275 c29 -14 134 -42 130 -34 -6 8 -52 23 -110 34 -16 3 -25 3
-20 0z"/>
<path d="M6150 8215 c24 -8 46 -13 48 -11 5 5 -59 26 -77 25 -9 0 4 -7 29 -14z"/>
<path d="M4000 8190 c-8 -5 -10 -10 -5 -10 6 0 17 5 25 10 8 5 11 10 5 10 -5
0 -17 -5 -25 -10z"/>
<path d="M6250 8182 c8 -5 26 -13 40 -16 17 -5 20 -4 10 2 -8 5 -26 13 -40 16
-17 5 -20 4 -10 -2z"/>
<path d="M3920 8160 c-8 -5 -10 -10 -5 -10 6 0 17 5 25 10 8 5 11 10 5 10 -5
0 -17 -5 -25 -10z"/>
<path d="M6330 8150 c8 -5 20 -10 25 -10 6 0 3 5 -5 10 -8 5 -19 10 -25 10 -5
0 -3 -5 5 -10z"/>
<path d="M3870 8140 c-8 -5 -10 -10 -5 -10 6 0 17 5 25 10 8 5 11 10 5 10 -5
0 -17 -5 -25 -10z"/>
<path d="M6380 8130 c8 -5 20 -10 25 -10 6 0 3 5 -5 10 -8 5 -19 10 -25 10 -5
0 -3 -5 5 -10z"/>
<path d="M4221 8024 c0 -11 3 -14 6 -6 3 7 2 16 -1 19 -3 4 -6 -2 -5 -13z"/>
<path d="M5702 8000 c0 -19 2 -27 5 -17 2 9 2 25 0 35 -3 9 -5 1 -5 -18z"/>
<path d="M6608 7923 c4 -111 -10 -364 -16 -305 l-3 33 -122 -3 -122 -3 0 -41
c0 -22 -6 -48 -14 -58 -7 -9 -17 -42 -21 -74 l-6 -57 -8 40 c-16 89 -14 85
-52 85 -19 0 -49 -7 -66 -16 l-30 -16 2 -91 c2 -51 2 -129 1 -174 l-1 -81 -95
-7 -95 -7 -1 -102 c-1 -55 -3 -120 -4 -144 -3 -40 -2 -42 18 -36 24 7 23 7 55
5 20 -1 22 -6 22 -65 0 -72 -9 -81 -67 -70 l-34 6 5 -73 c2 -41 5 -97 5 -125
1 -45 4 -52 27 -63 25 -11 44 -8 44 9 0 5 -12 10 -27 12 -19 2 -29 9 -30 23
-2 11 0 14 3 8 3 -7 15 -13 25 -13 11 0 18 4 15 8 -2 4 -1 14 5 22 6 11 9 9 9
-11 0 -14 3 -29 8 -33 4 -4 7 -13 7 -19 0 -7 10 -12 23 -11 12 0 22 -4 22 -9
0 -5 7 -6 16 -3 12 5 14 1 9 -17 -6 -17 -5 -19 5 -10 7 6 12 28 12 49 0 32 2
36 12 23 13 -19 62 -38 52 -20 -4 6 -3 11 3 11 5 0 9 -8 8 -19 -1 -14 -7 -18
-27 -15 -20 4 -26 0 -26 -16 0 -11 4 -20 8 -20 4 0 8 -11 8 -24 0 -21 5 -24
34 -24 19 0 43 -3 55 -7 17 -5 21 -2 21 15 0 12 5 18 10 15 12 -7 13 7 3 20
-12 15 -4 685 8 685 5 0 9 -143 9 -370 0 -367 0 -370 21 -370 11 0 18 4 14 9
-3 5 0 13 7 18 19 11 39 13 32 2 -3 -5 -9 -7 -14 -4 -5 3 -11 2 -14 -3 -10
-16 10 -29 54 -36 31 -4 40 -3 30 4 -15 10 -12 11 23 14 6 1 15 10 19 21 4 12
6 6 4 -17 -3 -25 1 -38 11 -42 28 -11 37 -6 17 9 -16 13 -17 16 -4 25 11 7 16
5 18 -5 2 -8 7 -15 12 -15 15 0 -1 30 -21 41 -11 5 -17 14 -14 20 9 14 27 11
20 -3 -4 -7 0 -5 8 4 8 10 18 14 22 10 5 -4 5 -1 1 6 -5 7 1 15 14 20 12 4 21
11 21 15 -3 29 1 47 9 42 11 -7 14 -197 4 -208 -3 -3 -23 1 -44 8 -147 52
-440 79 -600 56 -100 -15 -239 -50 -368 -92 -51 -17 -95 -29 -96 -28 -2 2 -17
31 -35 64 -40 77 -122 173 -197 231 -290 227 -792 195 -1072 -69 -70 -67 -138
-163 -161 -227 -10 -28 -27 -57 -38 -65 -17 -12 -22 -30 -27 -87 -3 -40 -8
-101 -12 -135 l-6 -63 -269 0 -269 0 0 197 c0 108 2 194 5 192 2 -3 5 -57 6
-120 1 -107 2 -115 21 -116 12 -1 22 6 25 16 3 10 16 24 29 30 23 10 24 13 24
131 0 73 4 120 10 120 6 0 11 -49 12 -122 0 -68 3 -108 5 -90 4 28 7 32 25 26
15 -4 19 -2 16 7 -3 8 -11 14 -19 14 -9 0 -15 14 -17 40 -2 34 0 41 16 41 13
0 18 -6 15 -17 -3 -9 0 -20 6 -23 5 -4 8 -13 5 -21 -4 -9 1 -13 15 -12 25 2
26 6 5 22 -16 11 -16 14 1 43 15 25 16 33 6 46 -13 16 -6 40 9 31 5 -3 16 5
24 17 l16 22 0 -23 c0 -21 2 -22 17 -10 15 12 16 12 10 -4 -4 -10 -7 -20 -7
-23 0 -2 -7 -1 -15 2 -21 8 -20 -30 2 -67 22 -37 37 -37 30 -1 -3 15 -1 34 4
42 9 13 10 13 8 0 -4 -40 1 -50 27 -48 14 2 34 13 44 25 10 13 20 23 23 23 2
0 5 -37 6 -82 1 -45 4 -84 6 -87 3 -2 5 110 5 250 0 147 4 260 10 269 6 10 10
-57 11 -200 1 -118 3 -207 6 -197 2 9 11 17 19 17 7 0 21 11 30 25 19 29 31
27 15 -2 -9 -17 -7 -19 20 -15 30 4 41 22 14 22 -8 0 -15 4 -15 9 0 5 12 8 26
5 20 -4 27 0 31 16 5 17 11 20 33 15 23 -5 31 0 54 33 l27 40 6 268 c3 148 7
271 9 273 4 4 8 -483 5 -503 -2 -9 75 49 84 65 3 5 8 113 10 241 3 128 5 236
5 239 0 3 10 5 23 4 17 -2 21 -8 19 -25 -2 -20 0 -21 15 -9 14 12 16 12 8 0
-4 -8 -9 -33 -10 -57 -1 -36 1 -42 12 -32 8 6 12 17 9 25 -6 15 6 17 20 3 7
-7 10 -4 10 12 -1 13 -7 28 -14 34 -11 8 -11 12 2 23 13 11 19 11 31 1 10 -8
12 -17 6 -24 -10 -12 11 -50 22 -39 4 3 7 1 7 -5 0 -7 -6 -12 -14 -12 -8 0
-17 -8 -21 -17 -5 -14 -4 -15 6 -6 8 8 18 9 29 3 16 -8 18 -5 16 31 -1 22 1
42 6 45 4 3 8 -12 9 -33 0 -21 4 -47 9 -58 9 -20 9 -20 9 0 1 30 28 64 48 61
11 -2 21 -15 24 -32 4 -16 7 111 8 283 1 357 8 333 -93 333 l-56 0 0 -45 c0
-25 -4 -45 -10 -45 -5 0 -10 21 -10 46 l0 46 -112 -7 c-87 -5 -116 -11 -126
-24 -11 -13 -13 -57 -7 -223 5 -145 3 -212 -4 -227 -11 -19 -20 -21 -111 -21
l-100 0 0 194 c0 232 2 226 -100 226 l-69 0 -4 -37 c-3 -33 -4 -31 -5 12 -3
76 -19 125 -42 125 -16 0 -20 -9 -23 -52 l-3 -53 -2 52 c-2 64 -16 74 -92 65
l-55 -7 3 -46 4 -47 -47 -4 -46 -3 3 246 3 247 -27 -14 -28 -14 0 -1008 0
-1007 -105 -105 -105 -105 0 217 0 216 36 21 c49 29 56 26 11 -4 l-37 -26 0
-188 c1 -104 4 -191 7 -195 3 -3 37 26 75 65 l69 71 -3 1003 c-2 665 -6 1001
-13 997 -9 -5 -126 -93 -248 -187 -85 -64 -388 -373 -468 -475 -260 -332 -451
-687 -584 -1085 -57 -170 -124 -494 -139 -670 -4 -38 -9 -91 -12 -117 l-6 -47
138 -3 138 -3 13 -75 c22 -127 25 -156 16 -143 -14 20 -209 -29 -197 -49 5 -8
-10 -12 -34 -9 -7 1 -19 -5 -28 -14 -14 -13 -13 -15 11 -15 15 0 24 -4 20 -10
-4 -6 -10 -8 -14 -6 -4 3 -13 1 -21 -4 -9 -5 -20 -4 -28 2 -11 9 -12 7 -8 -13
3 -13 8 -68 11 -122 5 -70 10 -95 18 -90 7 4 172 8 367 8 226 1 362 5 373 11
27 16 -139 24 -470 24 -162 0 -273 4 -273 9 0 5 12 11 28 13 19 2 26 8 24 21
-3 19 32 37 73 37 13 0 26 6 28 13 4 8 6 6 6 -4 1 -19 35 -52 44 -42 12 11 8
23 -8 23 -13 0 -13 3 -3 14 10 11 14 10 23 -7 15 -29 42 -44 55 -31 8 8 7 16
-4 27 -22 22 -20 30 4 15 11 -7 20 -18 20 -24 0 -6 7 -17 16 -25 14 -11 15
-10 12 7 -2 13 2 19 15 18 9 -1 17 2 17 8 0 5 4 7 10 3 5 -3 7 -12 3 -20 -6
-18 -9 -17 92 -21 74 -3 98 2 149 28 12 6 16 6 12 0 -10 -17 17 -19 64 -5 74
22 101 36 87 46 -7 5 1 7 20 4 18 -2 31 -1 28 1 -3 3 21 16 52 28 91 37 102
53 129 195 13 68 24 136 24 152 l0 27 632 0 c348 0 628 -4 623 -8 -6 -5 -42
-15 -82 -22 -62 -11 -80 -11 -137 4 -89 22 -150 20 -218 -8 -31 -13 -249 -124
-485 -246 -235 -123 -500 -261 -589 -306 -88 -46 -169 -93 -180 -105 -17 -20
-19 -35 -16 -188 3 -198 6 -205 103 -238 37 -13 49 -20 29 -17 -19 3 -54 14
-78 25 -23 10 -40 14 -37 9 3 -5 -3 -14 -12 -20 -16 -10 -16 -10 2 -5 19 4 20
1 18 -40 -1 -25 2 -45 7 -45 6 0 10 -6 10 -12 0 -7 -12 0 -27 15 -24 24 -26
30 -15 48 12 19 11 19 -8 9 -17 -9 -18 -14 -9 -32 7 -12 19 -30 28 -39 19 -21
78 -39 67 -20 -4 6 -2 11 3 11 6 0 11 -6 11 -13 0 -17 222 -91 302 -101 9 -1
22 -7 30 -13 7 -7 39 -13 71 -15 31 -2 57 -6 57 -10 0 -5 -205 -8 -455 -8
-250 0 -455 -3 -455 -7 1 -33 13 -34 518 -33 l502 0 126 -41 c69 -22 128 -38
132 -35 3 3 12 0 21 -8 21 -17 69 -26 74 -13 2 7 10 6 23 -1 19 -11 19 -11 -1
-13 -11 0 0 -7 25 -14 158 -49 180 -51 180 -20 0 8 5 15 11 15 6 0 9 -12 7
-27 -2 -21 2 -29 16 -31 11 -3 16 0 12 7 -4 6 -1 11 8 11 8 0 16 -7 18 -17 3
-18 119 -56 144 -46 8 3 14 0 14 -6 0 -8 11 -10 35 -5 28 5 35 3 35 -10 0 -12
6 -15 24 -10 13 3 27 1 31 -5 3 -7 3 -11 -2 -10 -4 1 -19 0 -33 -1 -14 -2 10
-6 52 -10 53 -5 90 -15 122 -33 38 -21 47 -23 57 -11 13 16 32 18 57 5 9 -5
26 -12 37 -16 16 -5 17 -8 5 -15 -12 -7 -11 -10 5 -16 11 -4 25 -10 30 -12 6
-3 4 2 -4 11 -7 9 -9 17 -3 17 15 0 33 -26 24 -35 -4 -4 4 -5 18 -2 14 4 31 1
40 -7 8 -7 42 -21 75 -31 33 -9 71 -20 84 -24 20 -6 37 2 86 39 172 130 403
161 567 77 l69 -36 107 78 c140 101 202 143 202 138 0 -3 -68 -53 -150 -111
l-150 -107 36 -45 c20 -24 39 -44 43 -44 35 0 182 115 174 137 -3 7 0 13 7 13
6 0 8 -4 5 -10 -17 -28 64 21 121 73 10 9 36 31 57 49 21 17 36 37 33 44 -6
15 9 27 38 31 16 3 17 1 5 -14 -13 -17 -13 -17 11 0 14 9 36 25 50 34 14 10
55 41 92 71 l67 53 1045 -3 1046 -3 9 28 c7 19 7 26 -1 21 -10 -7 -2038 -16
-2038 -10 0 2 29 28 65 56 35 29 62 57 58 63 -3 6 -1 7 5 3 7 -4 39 14 74 41
56 43 60 48 39 51 -13 2 -27 -2 -31 -8 -4 -7 -10 -8 -13 -3 -10 16 9 33 33 31
15 -2 24 3 25 15 2 9 -1 15 -6 11 -5 -3 -7 -10 -4 -15 9 -14 -11 -11 -24 4 -8
10 -7 17 1 25 26 26 -34 1 -94 -39 -94 -63 -61 -34 65 56 62 45 117 92 124
105 7 14 13 66 14 120 0 62 3 88 9 75 5 -11 9 -32 9 -47 1 -18 6 -28 17 -28 8
0 13 4 10 9 -3 5 1 14 8 20 11 9 16 9 22 0 4 -8 3 -9 -4 -5 -7 4 -12 3 -12 -3
0 -12 133 -2 138 11 2 4 17 8 33 8 26 0 29 4 30 33 3 65 17 -54 18 -146 1 -89
11 -123 52 -176 10 -13 17 -27 14 -31 -7 -11 53 -60 72 -60 12 0 13 3 4 14 -8
10 13 6 63 -12 75 -27 89 -42 21 -23 -20 5 -33 6 -30 0 4 -5 1 -9 -5 -9 -6 0
-8 -5 -4 -11 5 -8 9 -8 14 1 10 16 50 3 50 -16 0 -8 4 -13 9 -9 5 3 13 1 16
-5 4 -6 16 -8 27 -4 16 5 20 3 15 -10 -5 -12 4 -18 36 -26 23 -6 55 -15 71
-20 36 -12 37 -12 33 1 -1 6 4 14 12 17 10 3 12 0 8 -11 -3 -9 0 -18 9 -21 9
-3 14 1 14 12 0 10 3 13 8 6 10 -15 42 -25 42 -13 0 6 9 7 23 3 20 -6 76 -15
102 -15 6 0 20 3 33 6 14 5 22 3 22 -4 0 -6 7 -11 15 -11 8 0 15 5 15 11 0 8
5 7 16 -2 14 -11 18 -10 31 6 13 19 15 19 27 3 10 -13 20 -16 42 -10 16 4 59
7 96 7 55 0 68 3 68 16 0 28 12 29 33 3 l20 -26 18 23 c10 13 19 39 19 57 0
19 4 31 10 27 5 -3 6 -13 3 -22 -5 -12 -2 -15 9 -11 9 4 19 3 24 0 5 -4 6 -3
2 3 -5 5 -8 16 -8 25 1 12 2 12 11 -2 5 -10 15 -18 22 -18 7 0 6 4 -3 10 -8 5
-11 12 -8 15 11 11 28 -5 28 -26 0 -11 7 -19 18 -19 14 0 15 2 2 10 -12 8 -13
11 -1 19 11 7 11 9 0 14 -12 5 -12 7 0 15 7 5 11 14 7 20 -3 6 -3 18 1 28 6
15 7 15 14 -4 4 -12 6 -39 3 -61 -4 -34 -2 -40 11 -35 18 7 19 16 3 32 -9 9
-9 12 0 12 7 0 12 7 12 15 0 8 4 15 9 15 5 0 11 14 15 31 7 35 -19 83 -40 75
-8 -3 -14 1 -14 9 0 21 -36 42 -122 71 -43 14 -80 29 -82 33 -2 3 -1 21 2 39
6 28 16 36 80 67 81 38 157 104 201 173 32 52 61 139 61 186 l0 31 125 -3
c123 -3 125 -3 125 19 0 22 -1 22 -124 15 l-123 -7 -6 63 c-6 79 -35 145 -81
192 -52 52 -92 69 -172 74 l-72 4 -6 52 c-3 28 -6 61 -6 74 l0 23 301 -3 300
-3 -5 55 c-3 30 -8 87 -12 125 -16 195 -86 513 -159 725 -49 140 -145 366
-199 465 l-44 80 -254 3 -255 2 -7 188 c-3 103 -5 259 -4 348 l2 161 -50 49
c-55 55 -105 97 -87 74 13 -17 21 -902 8 -932 -4 -10 -11 -18 -16 -18 -5 0 -9
208 -9 488 l0 488 -59 52 c-78 68 -254 200 -361 269 -47 31 -97 64 -112 74
-15 11 -30 19 -33 19 -3 0 -5 -387 -5 -860 0 -547 -4 -860 -10 -860 -5 0 -25
8 -45 17 l-35 17 0 866 c0 660 -3 869 -12 878 -28 28 -33 11 -30 -95z m-3
-353 c3 -5 1 -10 -4 -10 -6 0 -11 5 -11 10 0 6 2 10 4 10 3 0 8 -4 11 -10z
m432 -32 c-3 -8 -6 -5 -6 6 -1 11 2 17 5 13 3 -3 4 -12 1 -19z m-250 -20 c-3
-7 -5 -2 -5 12 0 14 2 19 5 13 2 -7 2 -19 0 -25z m250 -50 c-2 -13 -4 -5 -4
17 -1 22 1 32 4 23 2 -10 2 -28 0 -40z m0 -60 c-3 -8 -6 -5 -6 6 -1 11 2 17 5
13 3 -3 4 -12 1 -19z m-250 -205 c-1 -43 -3 -10 -3 72 0 83 2 118 3 78 2 -40
2 -107 0 -150z m-2552 122 c0 -13 -8 -21 -24 -23 -28 -4 -46 11 -37 33 9 25
61 16 61 -10z m105 5 c0 -27 -27 -37 -47 -17 -20 19 -9 37 23 37 17 0 24 -5
24 -20z m113 6 c3 -8 0 -20 -8 -26 -19 -16 -55 -3 -55 21 0 14 7 19 29 19 16
0 31 -6 34 -14z m1988 -6 c5 0 9 -27 9 -60 l0 -60 -40 0 -40 0 0 55 c0 56 17
81 48 70 8 -3 18 -5 23 -5z m149 -15 c7 -8 10 -29 6 -52 -3 -21 -5 -39 -6 -41
0 -2 -5 0 -10 3 -6 4 -8 10 -5 15 3 4 -3 14 -13 21 -16 13 -16 12 -3 -4 14
-17 13 -18 -5 -15 -13 2 -21 14 -25 38 -4 19 -5 38 -2 43 7 12 50 8 63 -8z
m-3055 -100 c0 -49 -1 -50 -30 -50 -28 0 -30 3 -33 39 -5 54 3 68 35 64 26 -3
28 -6 28 -53z m120 0 c0 -44 -3 -50 -22 -53 -29 -4 -47 30 -38 75 5 30 9 34
33 31 25 -3 27 -6 27 -53z m133 -2 l3 -53 -35 0 -36 0 0 48 c0 56 5 64 40 60
23 -3 25 -8 28 -55z m447 22 c0 -14 -8 -21 -27 -23 -22 -3 -28 1 -28 16 0 25
10 33 35 30 12 -2 20 -10 20 -23z m205 0 c0 -16 -35 -21 -44 -6 -8 12 4 21 26
21 10 0 18 -7 18 -15z m2130 -17 c0 -4 -9 -8 -20 -8 -11 0 -20 4 -20 8 0 4 9
8 20 8 11 0 20 -4 20 -8z m407 -10 c-3 -8 -6 -5 -6 6 -1 11 2 17 5 13 3 -3 4
-12 1 -19z m3 -579 l0 -551 -62 46 c-35 25 -80 55 -100 66 -23 12 -38 28 -37
38 0 9 3 12 5 5 5 -12 165 -123 177 -123 4 0 7 241 7 535 0 294 2 535 5 535 3
0 5 -248 5 -551z m-2646 535 c9 -3 16 -15 16 -25 0 -14 -7 -19 -30 -19 -22 0
-30 5 -30 18 0 30 13 38 44 26z m126 -9 c18 -11 -2 -35 -30 -35 -34 0 -47 15
-30 35 11 13 39 13 60 0z m-1303 -572 c-1 -104 -2 -19 -2 187 0 206 1 291 2
188 2 -104 2 -272 0 -375z m3630 220 c-1 -60 -3 -11 -3 107 0 118 2 167 3 108
2 -60 2 -156 0 -215z m-725 267 c-6 -41 -12 -38 -12 6 0 19 4 33 8 30 5 -3 7
-19 4 -36z m-2524 -41 c3 -50 -11 -66 -49 -54 -15 5 -19 16 -19 56 l0 50 33
-3 c31 -3 32 -5 35 -49z m114 39 c9 -26 3 -81 -9 -85 -7 -3 -13 0 -13 7 0 6 5
8 10 5 15 -9 12 7 -5 31 -8 12 -11 24 -7 28 3 4 -2 4 -13 0 -18 -7 -18 -6 -6
9 16 20 37 22 43 5z m586 -25 c3 -20 -1 -23 -27 -23 -34 0 -44 10 -35 35 10
25 58 16 62 -12z m110 19 c19 -13 3 -42 -23 -42 -27 0 -39 14 -31 35 6 16 34
19 54 7z m72 -69 c0 -27 -4 -43 -8 -36 -8 12 -4 83 4 83 2 0 4 -21 4 -47z
m2025 -18 l0 -60 -35 0 c-35 0 -35 0 -38 49 -4 67 1 78 40 74 l33 -3 0 -60z
m150 9 c8 -63 -1 -76 -45 -72 -23 3 -25 7 -28 66 l-3 62 34 0 c35 0 35 0 42
-56z m672 -326 c-1 -73 -3 -16 -3 127 0 143 2 203 3 133 2 -70 2 -187 0 -260z
m-3579 157 c0 -47 -3 -60 -7 -40 -4 17 -7 82 -8 145 0 109 0 111 7 40 4 -41 7
-106 8 -145z m612 170 c0 -5 -5 -3 -10 5 -5 8 -10 20 -10 25 0 6 5 3 10 -5 5
-8 10 -19 10 -25z m55 16 c3 -5 2 -12 -3 -15 -5 -3 -9 1 -9 9 0 17 3 19 12 6z
m-31 -16 c-4 -8 -8 -15 -10 -15 -2 0 -4 7 -4 15 0 8 4 15 10 15 5 0 7 -7 4
-15z m-354 -15 c0 -5 -15 -10 -34 -10 -19 0 -38 5 -41 10 -4 6 10 10 34 10 23
0 41 -4 41 -10z m119 -6 c2 -2 -19 -4 -47 -4 -28 0 -53 4 -56 8 -5 8 95 4 103
-4z m371 -54 c-12 -23 -16 -24 -26 -8 -4 6 -3 8 3 5 6 -4 13 0 17 8 3 8 8 15
11 15 3 0 1 -9 -5 -20z m-1989 -85 c31 -63 36 -115 18 -162 l-11 -28 -13 35
c-18 46 -18 55 -1 41 11 -9 15 -8 20 4 3 9 2 14 -3 11 -5 -4 -7 3 -4 14 7 25
-11 71 -49 128 -34 51 -36 62 -7 36 12 -10 35 -46 50 -79z m3734 -20 l0 -60
-40 0 -40 0 -3 49 c-4 69 1 78 45 74 l38 -3 0 -60z m-3308 18 c-3 -10 -5 -4
-5 12 0 17 2 24 5 18 2 -7 2 -21 0 -30z m1011 -5 c3 -37 3 -38 -32 -38 -35 0
-36 1 -36 41 0 39 1 40 33 37 29 -3 32 -6 35 -40z m128 27 c4 -8 3 -27 0 -41
-6 -21 -11 -25 -39 -22 -25 2 -33 8 -35 26 -2 13 -1 30 2 38 7 19 65 18 72 -1z
m-1186 -58 c0 -129 -51 -225 -148 -280 -29 -16 -55 -28 -57 -26 -2 2 3 18 11
34 9 20 12 22 8 7 -6 -23 -5 -23 25 -7 36 18 85 81 100 128 11 32 31 160 26
165 -5 6 -84 -33 -117 -59 -62 -50 -106 -165 -79 -208 5 -7 6 -23 3 -34 -5
-20 -6 -20 -13 -1 -27 69 8 180 79 249 36 34 132 93 155 95 4 0 7 -28 7 -63z
m47 -39 c-2 -13 -4 -5 -4 17 -1 22 1 32 4 23 2 -10 2 -28 0 -40z m-497 7 c0
-5 -5 -3 -10 5 -5 8 -10 20 -10 25 0 6 5 3 10 -5 5 -8 10 -19 10 -25z m4180
-32 c0 -16 3 -45 6 -65 6 -34 4 -38 -19 -43 -14 -4 -35 -2 -46 5 -18 9 -21 20
-21 70 l0 60 40 0 c37 0 40 -2 40 -27z m-4212 -71 c22 -20 23 -22 5 -13 -26
13 -73 72 -73 92 0 8 9 -2 21 -21 11 -19 32 -46 47 -58z m1169 36 c-3 -7 -5
-2 -5 12 0 14 2 19 5 13 2 -7 2 -19 0 -25z m493 -19 c0 -39 -1 -40 -32 -37
-26 2 -34 8 -36 26 -6 37 5 52 38 52 28 0 30 -2 30 -41z m-431 -61 l-2 -93 37
-3 37 -3 -3 -52 c-3 -51 -4 -52 -32 -49 -16 2 -33 -3 -38 -10 -18 -28 -29 16
-24 91 3 41 6 105 6 143 0 41 4 68 11 68 6 0 9 -33 8 -92z m1397 12 c105 -27
210 -81 275 -140 l54 -50 -75 42 c-41 22 -98 54 -126 69 -104 58 -324 92 -463
70 -115 -18 -255 -69 -335 -121 -75 -50 -177 -150 -215 -212 -34 -56 -36 -46
-4 15 15 28 65 89 109 134 67 67 97 89 175 127 52 24 119 52 149 60 139 39
316 42 456 6z m-2439 -77 c-3 -10 -5 -4 -5 12 0 17 2 24 5 18 2 -7 2 -21 0
-30z m4042 -1 c-1 -17 -3 -21 -6 -9 -2 9 -8 15 -13 12 -5 -3 -12 0 -16 6 -7
12 15 31 28 23 4 -3 7 -17 7 -32z m-459 6 c0 -4 -4 -8 -10 -8 -5 0 -10 -7 -10
-17 0 -9 -3 -14 -6 -10 -4 3 -13 -1 -21 -9 -14 -13 -17 -13 -28 3 -7 9 -10 24
-7 33 5 13 7 12 10 -2 4 -21 11 -22 32 -7 13 9 12 10 -2 5 -20 -6 -25 10 -5
17 18 7 47 4 47 -5z m44 -27 c-2 -3 -12 3 -22 13 -16 17 -16 18 5 5 12 -7 20
-15 17 -18z m-1298 -12 c83 -14 171 -44 227 -77 l47 -28 -47 -31 c-27 -17 -79
-64 -118 -104 l-70 -73 -110 3 c-125 2 -222 -18 -335 -70 l-66 -30 -86 25
c-47 13 -102 28 -122 31 -39 8 -44 19 -20 50 15 19 15 19 9 -7 -6 -21 -4 -28
8 -28 18 0 27 21 27 63 0 30 -1 30 -16 11 -11 -13 -10 -9 3 15 48 88 206 187
368 230 128 33 201 38 301 20z m-1086 -54 l0 -56 -57 3 c-55 3 -58 4 -61 31
-2 16 2 35 9 44 12 13 14 13 20 -4 7 -16 8 -16 8 3 1 28 9 34 48 34 l33 0 0
-55z m-1245 35 c-3 -5 -1 -18 5 -29 5 -11 6 -22 1 -25 -5 -3 -11 7 -14 22 -5
26 -1 42 9 42 3 0 2 -4 -1 -10z m3855 6 c0 -3 -4 -8 -10 -11 -5 -3 -10 -1 -10
4 0 6 5 11 10 11 6 0 10 -2 10 -4z m-4123 -50 c15 -9 39 -25 53 -37 28 -23 9
-15 -30 13 -14 10 -54 25 -90 33 l-65 15 52 -4 c29 -3 65 -12 80 -20z m4275
12 c-9 -9 -15 -9 -24 0 -9 9 -7 12 12 12 19 0 21 -3 12 -12z m-352 -19 c0 -11
-3 -11 -24 -3 -23 9 -20 23 4 17 11 -3 20 -9 20 -14z m-3316 -81 c-51 -92
-151 -189 -193 -188 -9 1 -2 7 14 14 40 18 90 70 126 133 l30 51 -56 7 c-31 4
-53 10 -50 13 5 6 117 29 147 31 14 1 10 -11 -18 -61z m-367 0 c-3 -7 -5 -2
-5 12 0 14 2 19 5 13 2 -7 2 -19 0 -25z m123 27 c0 -2 -10 -9 -22 -15 -22 -11
-22 -10 -4 4 21 17 26 19 26 11z m99 -9 c-10 -9 -69 -36 -69 -32 0 7 52 35 64
36 5 0 7 -2 5 -4z m4737 -47 c-57 -50 -86 -104 -86 -159 0 -61 21 -100 94
-177 78 -83 109 -146 108 -218 -1 -92 -66 -193 -182 -281 -50 -38 -61 -53 -37
-51 21 3 139 -14 135 -19 -3 -2 -40 0 -83 4 -66 7 -80 6 -98 -9 -21 -17 -20
-17 38 -24 159 -18 312 -70 360 -121 22 -24 25 -35 25 -109 0 -71 -3 -84 -21
-101 -28 -25 -49 -75 -49 -117 0 -37 32 -87 56 -87 12 0 14 -30 14 -172 l0
-172 -30 -31 c-52 -53 -54 -149 -4 -161 25 -6 26 -9 22 -64 -5 -70 -28 -104
-100 -147 -88 -53 -190 -75 -353 -74 -214 1 -360 36 -444 107 -72 62 -68 35
-72 591 -4 496 -4 502 17 529 43 58 198 110 357 121 l87 6 19 41 c10 23 39 67
65 99 138 170 145 236 42 381 -24 34 -51 79 -60 100 -23 56 -20 131 8 191 37
81 136 160 205 164 8 1 -7 -18 -33 -40z m-2286 24 c0 -5 -13 -15 -29 -24 -53
-30 -191 -259 -191 -316 0 -28 7 -28 45 -3 42 28 63 26 58 -4 -4 -20 2 -26 41
-42 l47 -19 -6 -75 c-17 -200 67 -383 194 -421 51 -15 52 -41 1 -51 -19 -4
-82 -17 -140 -29 -103 -20 -199 -54 -187 -65 3 -3 29 1 59 10 86 25 200 46
246 46 l43 0 -25 -37 -25 -37 -118 -1 c-169 -2 -191 -19 -33 -25 l125 -5 -44
-32 c-24 -18 -67 -40 -95 -49 -28 -9 -89 -36 -136 -59 -117 -58 -223 -95 -274
-95 -78 0 -395 95 -429 129 -6 6 11 12 47 16 31 4 56 11 56 16 0 11 -11 11
-89 -2 -59 -9 -66 -8 -85 10 -11 11 -16 24 -12 28 4 4 48 7 97 6 49 -1 89 2
89 6 0 12 -97 23 -166 20 -46 -2 -59 1 -70 16 -20 27 -17 44 5 38 25 -6 125
23 140 41 9 11 20 12 44 5 45 -13 76 -11 135 6 31 9 52 22 52 30 0 23 -18 27
-68 12 -46 -14 -102 -13 -102 2 0 4 11 14 25 21 62 33 140 169 171 295 18 72
26 312 12 347 -7 16 -12 16 -80 -3 -110 -30 -110 -30 -105 -43 3 -8 -61 9
-156 40 -89 29 -174 56 -189 59 -16 3 -28 9 -28 14 0 13 119 -8 247 -44 l121
-35 74 35 c40 19 100 42 133 50 63 17 275 33 275 21 0 -4 -7 -21 -16 -37 -8
-17 -14 -38 -12 -47 2 -11 22 8 59 58 91 123 269 271 269 223z m-2279 -41
c-10 -20 -38 -57 -61 -82 l-42 -45 40 50 c22 28 47 65 56 83 9 17 19 32 21 32
3 0 -3 -17 -14 -38z m1079 34 c0 -3 -4 -8 -10 -11 -5 -3 -10 -1 -10 4 0 6 5
11 10 11 6 0 10 -2 10 -4z m-1689 -23 c13 -16 12 -17 -3 -4 -10 7 -18 15 -18
17 0 8 8 3 21 -13z m359 14 c0 -2 -12 -14 -27 -28 l-28 -24 24 28 c23 25 31
32 31 24z m1254 -11 c-3 -8 -12 -17 -20 -20 -8 -3 -14 -15 -14 -26 0 -11 -4
-20 -10 -20 -13 0 -13 6 5 40 12 24 21 31 42 39 1 1 0 -5 -3 -13z m-1779 -16
c10 -11 16 -20 13 -20 -3 0 -13 9 -23 20 -10 11 -16 20 -13 20 3 0 13 -9 23
-20z m4222 -6 c174 -26 314 -80 463 -179 103 -68 161 -120 70 -64 -67 42 -164
89 -183 89 -20 0 -47 -93 -48 -170 -2 -95 28 -167 102 -241 50 -50 69 -61 131
-80 66 -20 79 -21 141 -11 38 7 79 19 90 27 25 18 41 20 31 4 -4 -7 -1 -10 7
-7 8 3 13 16 12 29 -3 39 56 -92 69 -152 6 -30 8 -67 5 -81 -7 -25 -12 -27
-84 -33 -133 -12 -225 -34 -310 -76 -124 -60 -127 -66 -131 -275 l-3 -171 -39
-12 c-162 -48 -376 -30 -605 52 l-90 32 60 6 c56 6 135 0 198 -16 40 -11 33 6
-17 38 -188 118 -243 405 -123 631 76 143 196 221 370 241 75 9 64 25 -18 25
-154 0 -302 -90 -384 -233 -80 -141 -100 -344 -48 -480 14 -37 40 -87 56 -111
l30 -43 -69 -7 c-38 -3 -81 -11 -96 -17 -16 -5 -39 -7 -52 -4 -20 5 -23 10
-18 33 23 96 14 203 -26 306 -21 54 -57 110 -65 102 -3 -3 9 -52 27 -108 37
-112 43 -200 22 -275 -12 -39 -15 -42 -57 -49 -58 -8 -105 -40 -130 -87 -11
-20 -27 -40 -35 -44 -8 -4 -85 -8 -170 -9 -185 -2 -219 -7 -330 -46 -138 -49
-178 -60 -207 -56 -25 3 -28 7 -25 33 2 17 8 34 13 40 5 5 9 16 9 25 -1 24
-50 -37 -57 -71 -6 -33 -4 -33 -38 -17 -36 16 -42 50 -16 94 12 20 20 38 18
40 -7 7 -57 -48 -57 -62 0 -8 -4 -14 -10 -14 -5 0 -10 16 -10 36 0 50 39 85
125 113 39 12 108 42 155 65 92 46 213 91 355 131 l90 25 -72 -4 c-68 -3 -72
-2 -62 15 7 13 17 18 32 14 79 -19 168 -31 173 -24 6 11 -22 22 -102 39 l-62
14 32 48 31 48 69 0 c80 0 80 10 0 21 -31 4 -58 10 -61 13 -14 14 12 44 47 56
50 17 143 112 171 176 53 118 8 336 -82 401 -20 15 -64 152 -52 163 13 12 230
76 318 94 181 36 332 39 522 10z m-2607 2 c0 -2 -7 -6 -15 -10 -8 -3 -15 -1
-15 4 0 6 7 10 15 10 8 0 15 -2 15 -4z m1480 -119 l22 -94 -37 -49 c-20 -27
-38 -50 -40 -52 -1 -1 -14 3 -29 9 -19 9 -26 20 -26 41 0 31 -12 35 -68 19
-17 -5 -32 -6 -32 -2 0 12 120 205 143 229 19 20 23 21 33 8 6 -9 21 -58 34
-109z m-1470 83 c0 -5 -2 -10 -4 -10 -3 0 -8 5 -11 10 -3 6 -1 10 4 10 6 0 11
-4 11 -10z m-1535 -10 c13 -6 15 -9 5 -9 -8 0 -22 4 -30 9 -18 12 -2 12 25 0z
m3083 -24 c19 -32 19 -46 1 -46 -4 0 -10 11 -13 24 -3 13 -9 31 -12 40 -11 28
3 17 24 -18z m-2929 6 c8 -16 6 -17 -27 -13 -33 5 -34 6 -9 9 15 2 25 8 22 13
-4 5 -4 9 -1 9 3 0 10 -8 15 -18z m90 -32 c0 -9 -4 -8 -9 5 -5 11 -9 27 -9 35
0 9 4 8 9 -5 5 -11 9 -27 9 -35z m724 -9 c20 -18 37 -40 36 -50 0 -11 -3 -10
-9 5 -5 12 -25 34 -44 49 -20 15 -36 35 -35 44 0 14 1 14 7 0 4 -9 24 -30 45
-48z m287 39 c-10 -19 -30 -28 -30 -14 0 6 30 33 38 34 1 0 -2 -9 -8 -20z
m-1197 3 c-7 -2 -19 -2 -25 0 -7 3 -2 5 12 5 14 0 19 -2 13 -5z m607 -17 c0
-2 -8 -10 -17 -17 -16 -13 -17 -12 -4 4 13 16 21 21 21 13z m2592 -76 c29 -82
33 -100 19 -100 -5 0 -22 34 -37 76 -19 53 -34 78 -47 82 -14 4 -16 7 -5 13
28 18 44 2 70 -71z m-2889 55 c-3 -9 -8 -14 -10 -11 -3 3 -2 9 2 15 9 16 15
13 8 -4z m529 -17 c23 -13 43 -28 45 -34 4 -13 -121 -38 -157 -31 -19 3 -15 5
15 7 22 1 54 6 70 10 l30 7 -25 10 c-14 6 -60 14 -103 18 -65 6 -81 5 -104
-11 -23 -14 -25 -14 -15 -1 7 8 32 25 55 37 53 27 128 22 189 -12z m-657 -74
c5 -22 1 -18 -14 15 -24 51 -27 64 -7 35 8 -11 18 -34 21 -50z m2885 26 c9
-18 8 -20 -15 -20 -24 0 -34 18 -18 33 11 12 22 8 33 -13z m-2490 -5 c0 -2
-10 -9 -22 -15 -22 -11 -22 -10 -4 4 21 17 26 19 26 11z m97 -11 c-3 -3 -12
-4 -19 -1 -8 3 -5 6 6 6 11 1 17 -2 13 -5z m1210 -126 c109 -79 113 -84 64
-92 -40 -6 -67 -28 -56 -46 3 -5 14 -10 23 -10 11 0 13 -3 6 -8 -18 -11 -34
-48 -34 -76 0 -14 -4 -26 -8 -26 -17 0 -142 298 -142 337 0 19 44 -5 147 -79z
m1223 7 c0 -12 -7 -25 -15 -29 -16 -6 -33 -40 -46 -96 -7 -29 -8 -25 -4 19 7
88 65 183 65 106z m-2500 4 c53 -24 86 -53 107 -93 19 -36 6 -46 -57 -45 -42
2 -43 2 -12 8 l34 6 -32 40 c-35 44 -78 72 -127 81 -18 3 -33 10 -33 15 0 16
74 9 120 -12z m2658 -13 c49 -25 74 -87 78 -190 l3 -91 -8 80 c-11 110 -42
165 -102 180 -18 4 -31 1 -42 -10 -18 -17 -46 -103 -48 -144 -1 -17 -3 -20 -6
-8 -2 9 -9 15 -14 12 -10 -7 -11 81 -1 108 7 17 89 77 105 77 4 0 20 -6 35
-14z m1517 -6 c10 -11 16 -20 13 -20 -3 0 -13 9 -23 20 -10 11 -16 20 -13 20
3 0 13 -9 23 -20z m-4445 -14 c0 -2 -8 -10 -17 -17 -16 -13 -17 -12 -4 4 13
16 21 21 21 13z m1371 -77 l-9 -54 -1 65 c-1 43 2 61 9 54 7 -7 7 -29 1 -65z
m1380 40 c-9 -22 -10 -22 -10 -3 -1 11 2 24 6 27 12 12 14 0 4 -24z m-2570
-44 c23 -8 53 -16 68 -16 24 -2 24 -2 3 -6 -32 -6 -112 22 -147 53 l-30 26 32
-21 c17 -12 51 -28 74 -36z m4310 38 c13 -16 12 -17 -3 -4 -10 7 -18 15 -18
17 0 8 8 3 21 -13z m-4470 -20 c-60 -81 -77 -93 -46 -33 12 24 50 60 63 60 2
0 -6 -12 -17 -27z m2716 -70 c-2 -16 -4 -5 -4 22 0 28 2 40 4 28 2 -13 2 -35
0 -50z m-2637 37 c15 -11 38 -24 51 -29 15 -6 18 -10 8 -10 -9 -1 -33 10 -53
24 -37 25 -56 25 -56 2 0 -16 103 -40 133 -32 18 5 19 4 7 -5 -12 -9 -9 -10
15 -7 17 2 23 2 15 -1 -9 -3 -5 -9 15 -18 17 -8 21 -12 10 -8 -69 20 -133 34
-155 34 -14 0 -35 3 -47 6 -22 6 -22 7 -6 35 20 34 26 35 63 9z m-310 -55 c0
-5 -5 -3 -10 5 -5 8 -10 20 -10 25 0 6 5 3 10 -5 5 -8 10 -19 10 -25z m1530
13 c0 -7 -11 -28 -25 -49 -14 -20 -31 -65 -38 -100 -11 -57 -15 -64 -37 -66
-23 -3 -23 -2 -4 6 15 7 23 24 31 67 6 33 13 66 15 74 3 13 -33 15 -279 15
l-282 0 31 33 32 32 278 0 c209 0 278 -3 278 -12z m101 -67 c-8 -13 -18 -42
-23 -65 -6 -35 -6 -32 -3 15 3 30 10 71 17 90 12 33 12 33 18 9 4 -15 0 -34
-9 -49z m3299 49 c0 -5 -4 -10 -10 -10 -5 0 -10 5 -10 10 0 6 5 10 10 10 6 0
10 -4 10 -10z m-4963 -50 c1 -14 0 -18 -3 -7 -10 33 -141 16 -251 -33 -57 -26
-62 -31 -66 -64 l-4 -36 1 37 c1 36 4 40 61 68 59 29 200 66 240 62 14 -1 21
-10 22 -27z m335 19 c108 -22 185 -49 207 -73 22 -24 23 -29 16 -126 -9 -120
-13 -126 -112 -158 -116 -37 -379 -56 -402 -29 -6 8 -8 17 -4 20 3 4 1 7 -6 7
-9 0 -12 9 -9 25 3 14 1 25 -5 25 -6 0 -18 7 -27 15 -10 9 -28 18 -40 20 -13
3 -26 9 -30 15 -4 6 -17 12 -30 15 -13 2 -33 13 -44 24 -12 10 -35 22 -52 25
-17 4 -46 20 -65 37 l-34 29 36 -23 c20 -13 74 -32 120 -43 106 -24 362 -24
486 -1 91 17 193 59 193 79 0 40 -165 107 -262 108 -21 0 -38 5 -38 10 0 13
36 13 102 -1z m1262 -26 c-4 -16 -10 -66 -14 -113 -4 -47 -8 -77 -8 -67 -3 33
-22 17 -23 -20 -1 -22 -5 -9 -9 32 -4 39 -3 86 3 105 11 42 38 90 50 90 5 0 6
-12 1 -27z m-773 -107 c-9 -11 -9 -15 1 -19 7 -3 2 -6 -11 -6 -23 -1 -24 0 -6
19 20 23 34 28 16 6z m806 -43 c-3 -10 -5 -2 -5 17 0 19 2 27 5 18 2 -10 2
-26 0 -35z m3273 12 c0 -5 -5 -3 -10 5 -5 8 -10 20 -10 25 0 6 5 3 10 -5 5 -8
10 -19 10 -25z m-4293 -22 c-3 -10 -5 -4 -5 12 0 17 2 24 5 18 2 -7 2 -21 0
-30z m739 25 c3 -4 -108 -6 -247 -5 -211 1 -230 2 -114 6 185 8 352 7 361 -1z
m81 -4 c-3 -3 -12 -4 -19 -1 -8 3 -5 6 6 6 11 1 17 -2 13 -5z m3492 -64 c0 -9
-4 -8 -9 5 -5 11 -9 27 -9 35 0 9 4 8 9 -5 5 -11 9 -27 9 -35z m-3332 -22 c-3
-8 -6 -5 -6 6 -1 11 2 17 5 13 3 -3 4 -12 1 -19z m-1577 -85 c0 -13 -3 -13
-15 -3 -8 7 -15 16 -15 21 0 5 7 6 15 3 8 -4 15 -13 15 -21z m-20 -13 c0 -5
-5 -10 -11 -10 -5 0 -7 5 -4 10 3 6 8 10 11 10 2 0 4 -4 4 -10z m-133 -16 c-3
-3 -12 -4 -19 -1 -8 3 -5 6 6 6 11 1 17 -2 13 -5z m88 -14 c13 -6 5 -7 -25 -3
-25 3 -47 7 -49 9 -9 8 55 2 74 -6z m2050 -8 c-3 -3 -11 0 -18 7 -9 10 -8 11
6 5 10 -3 15 -9 12 -12z m3172 12 c-3 -3 -12 -4 -19 -1 -8 3 -5 6 6 6 11 1 17
-2 13 -5z m-4694 -106 c-29 -206 -56 -322 -77 -345 -35 -37 -129 -64 -236 -69
-52 -2 -87 -1 -77 2 9 3 17 14 17 25 0 11 5 17 10 14 6 -4 8 -10 5 -15 -10
-16 15 -22 32 -8 9 7 18 12 20 11 10 -8 23 -1 17 8 -3 6 -9 7 -13 3 -13 -18
-32 -13 -43 11 -11 25 -23 32 -31 18 -2 -5 -2 -2 0 6 2 7 -6 21 -17 31 -20 17
-43 103 -31 117 3 4 -2 1 -11 -6 -16 -12 -17 -10 -13 21 4 31 3 32 -11 14 -14
-19 -14 -19 -14 2 0 12 4 22 8 22 5 0 22 19 39 43 21 28 38 42 54 43 42 1 92
12 98 22 3 5 24 12 46 16 22 3 69 13 103 22 53 14 65 15 72 4 6 -9 11 -2 15
23 6 32 25 56 46 57 3 0 0 -42 -8 -92z m1468 65 c13 -16 12 -17 -3 -4 -10 7
-18 15 -18 17 0 8 8 3 21 -13z m3354 -3 c3 -6 -1 -7 -9 -4 -18 7 -21 14 -7 14
6 0 13 -4 16 -10z m-4938 -16 c-3 -3 -12 -4 -19 -1 -8 3 -5 6 6 6 11 1 17 -2
13 -5z m-74 -11 c-7 -2 -19 -2 -25 0 -7 3 -2 5 12 5 14 0 19 -2 13 -5z m5132
-36 l40 -4 -41 -1 c-31 -2 -45 3 -60 21 -19 22 -19 22 1 5 11 -9 38 -18 60
-21z m-3727 -7 c3 0 3 -3 0 -6 -7 -6 -78 22 -78 31 0 3 16 -2 36 -10 20 -8 39
-15 42 -15z m3799 4 c-3 -3 -12 -4 -19 -1 -8 3 -5 6 6 6 11 1 17 -2 13 -5z
m-4629 -11 c-21 -2 -57 -2 -80 0 -24 2 -7 4 37 4 44 0 63 -2 43 -4z m942 -104
c0 -19 -4 -20 -52 -14 -70 10 -82 19 -33 26 77 12 85 11 85 -12z m-246 -10
c44 -11 110 -29 146 -38 63 -18 64 -19 33 -25 -20 -5 -53 -2 -86 8 -29 8 -78
18 -109 22 -32 4 -59 12 -62 20 -12 31 -125 24 -126 -8 -1 -7 -248 -134 -551
-283 -302 -148 -564 -279 -582 -291 -18 -12 -43 -24 -57 -28 -32 -10 147 90
430 239 124 65 306 161 405 213 99 53 225 117 280 143 117 56 156 60 279 28z
m-116 -16 c-10 -2 -26 -2 -35 0 -10 3 -2 5 17 5 19 0 27 -2 18 -5z m610 -107
c91 -28 123 -43 134 -60 12 -18 9 -63 -5 -74 -10 -9 -17 -3 -32 23 -10 19 -24
35 -32 35 -17 0 -16 -10 2 -34 24 -31 19 -65 -11 -76 -34 -13 -31 -15 -54 29
-35 69 -54 58 -25 -13 8 -17 5 -19 -30 -13 -109 18 -211 171 -158 240 l18 25
55 -28 c30 -15 93 -39 138 -54z m-403 49 c28 -7 41 -13 30 -14 -11 0 -42 6
-70 13 -63 18 -28 19 40 1z m145 -20 c0 -10 -10 -15 -30 -15 -38 0 -39 17 -2
23 15 2 28 5 30 6 1 0 2 -6 2 -14z m-196 -15 c191 -49 192 -49 205 -87 33 -91
131 -153 244 -153 84 0 125 17 166 68 29 35 35 39 64 33 29 -6 32 -11 37 -54
16 -131 198 -179 380 -99 81 36 114 30 695 -116 171 -43 316 -81 323 -85 29
-19 9 -46 -80 -109 -133 -93 -593 -400 -632 -421 -31 -16 -38 -16 -106 -2 -94
20 -381 101 -423 120 -17 8 -304 89 -637 179 -333 91 -679 185 -770 210 -91
25 -175 46 -187 46 -30 0 -235 58 -246 69 -9 9 107 75 398 226 399 208 364
193 439 194 27 1 86 -8 130 -19z m3982 -29 c153 -70 178 -344 48 -533 -35 -50
-117 -105 -194 -129 -75 -23 -90 -20 -90 18 0 43 26 73 63 73 18 0 54 13 82
28 158 87 197 341 66 429 -54 37 -94 39 -152 9 -57 -29 -66 -23 -56 42 10 59
45 82 125 82 43 0 81 -7 108 -19z m-6026 -151 c0 -34 -23 -41 -39 -13 -7 13
-5 21 7 30 26 19 32 16 32 -17z m5955 16 c36 -15 75 -76 75 -118 0 -22 -2 -23
-85 -20 l-85 3 0 65 c0 58 2 66 23 74 30 12 33 12 72 -4z m-5911 -22 c4 -10 1
-14 -6 -12 -15 5 -23 28 -10 28 5 0 13 -7 16 -16z m463 10 c-3 -3 -12 -4 -19
-1 -8 3 -5 6 6 6 11 1 17 -2 13 -5z m3881 -50 l93 -18 15 -53 c14 -49 12 -80
-11 -130 -1 -2 -21 4 -46 12 -24 7 -63 19 -86 25 l-42 10 2 64 c2 66 -9 90
-48 107 -23 11 -33 12 123 -17z m-3981 10 c-3 -3 -12 -4 -19 -1 -8 3 -5 6 6 6
11 1 17 -2 13 -5z m4383 -124 c0 -71 -4 -130 -9 -130 -5 0 -7 9 -4 20 5 18 3
19 -21 10 -25 -9 -26 -8 -26 28 0 38 -19 102 -46 153 -14 28 -14 29 13 35 16
3 33 7 38 9 6 2 20 4 33 4 22 1 22 -1 22 -129z m-4845 110 c3 -5 1 -10 -4 -10
-6 0 -11 5 -11 10 0 6 2 10 4 10 3 0 8 -4 11 -10z m508 3 c-7 -2 -19 -2 -25 0
-7 3 -2 5 12 5 14 0 19 -2 13 -5z m175 -10 c-26 -2 -71 -2 -100 0 -29 2 -8 3
47 3 55 0 79 -1 53 -3z m-683 -43 c-5 -8 -11 -8 -17 -2 -6 6 -7 16 -3 22 5 8
11 8 17 2 6 -6 7 -16 3 -22z m510 10 c-3 -5 -10 -10 -16 -10 -5 0 -9 5 -9 10
0 6 7 10 16 10 8 0 12 -4 9 -10z m5577 -90 c-8 -79 -64 -155 -134 -185 l-38
-15 0 120 0 121 88 -3 87 -3 -3 -35z m-1627 -93 c7 -7 6 -8 -2 -3 -7 4 -28 7
-47 8 -19 1 -33 5 -30 10 7 11 65 0 79 -15z m352 -23 c-3 -3 -12 -4 -19 -1 -8
3 -5 6 6 6 11 1 17 -2 13 -5z m-387 -14 c0 -5 -11 -10 -25 -10 -14 0 -25 5
-25 10 0 6 11 10 25 10 14 0 25 -4 25 -10z m-3120 -4 c0 -2 -9 -6 -20 -9 -11
-3 -18 -1 -14 4 5 9 34 13 34 5z m226 -52 c404 -111 1404 -384 1409 -384 13 0
2 -28 -22 -55 -25 -29 -25 -29 -9 -2 16 27 16 27 -11 38 -15 6 -129 38 -253
70 -124 33 -307 82 -407 110 -143 39 -186 48 -202 40 -11 -6 -23 -11 -28 -11
-4 1 3 7 16 14 24 13 24 13 -12 20 -20 4 -154 40 -298 81 -144 42 -279 78
-299 81 -32 5 -64 -5 -196 -61 -88 -37 -167 -69 -176 -72 -29 -9 -20 14 10 25
15 6 92 40 172 76 80 36 152 66 161 66 8 0 74 -16 145 -36z m-919 -16 c-3 -7
-5 -2 -5 12 0 14 2 19 5 13 2 -7 2 -19 0 -25z m143 12 c0 -5 -13 -10 -30 -10
-16 0 -30 5 -30 10 0 6 14 10 30 10 17 0 30 -4 30 -10z m3848 3 c-9 -2 -19
-14 -21 -26 -4 -18 -5 -17 -6 6 -1 22 3 27 22 26 15 -1 17 -3 5 -6z m-3889
-49 c9 -9 -53 7 -63 17 -5 5 5 4 24 -1 18 -5 35 -12 39 -16z m38 10 c-3 -3
-12 -4 -19 -1 -8 3 -5 6 6 6 11 1 17 -2 13 -5z m4053 -45 c0 -5 -7 -9 -15 -9
-15 0 -20 12 -9 23 8 8 24 -1 24 -14z m-4185 -99 c5 -8 3 -11 -6 -8 -10 3 -14
23 -16 64 l-1 59 8 -51 c4 -29 11 -58 15 -64z m4135 90 c0 -5 -5 -10 -11 -10
-5 0 -7 5 -4 10 3 6 8 10 11 10 2 0 4 -4 4 -10z m-3407 -7 c-7 -2 -19 -2 -25
0 -7 3 -2 5 12 5 14 0 19 -2 13 -5z m2847 -67 c0 -2 -8 -10 -17 -17 -16 -13
-17 -12 -4 4 13 16 21 21 21 13z m-2920 -16 c-8 -5 -19 -10 -25 -10 -5 0 -3 5
5 10 8 5 20 10 25 10 6 0 3 -5 -5 -10z m40 -10 c-8 -5 -22 -9 -30 -9 -10 0 -8
3 5 9 27 12 43 12 25 0z m-698 -75 c1 -30 0 -55 -4 -55 -5 0 -8 8 -8 18 0 9
-3 34 -6 55 -4 23 -3 37 4 37 5 0 12 -25 14 -55z m933 37 c-3 -3 -11 0 -18 7
-9 10 -8 11 6 5 10 -3 15 -9 12 -12z m530 -2 c-3 -5 -17 -10 -31 -10 -13 0
-24 5 -24 10 0 6 14 10 31 10 17 0 28 -4 24 -10z m-934 -90 c182 -54 169 -47
169 -86 0 -39 -12 -42 -70 -18 -34 14 -16 13 38 -2 21 -6 23 -4 20 21 -3 27
-9 30 -103 57 -55 16 -105 26 -112 23 -26 -9 10 -43 64 -60 83 -26 57 -28 -33
-3 l-79 23 -3 38 c-2 20 -1 37 1 37 2 0 51 -14 108 -30z m-33 -35 c-3 -3 -9 2
-12 12 -6 14 -5 15 5 6 7 -7 10 -15 7 -18z m2832 21 c0 -2 -8 -10 -17 -17 -16
-13 -17 -12 -4 4 13 16 21 21 21 13z m2117 -22 c-3 -3 -12 -4 -19 -1 -8 3 -5
6 6 6 11 1 17 -2 13 -5z m-4020 -50 c-3 -3 -12 -4 -19 -1 -8 3 -5 6 6 6 11 1
17 -2 13 -5z m-1282 -14 c13 -6 15 -9 5 -9 -8 0 -22 4 -30 9 -18 12 -2 12 25
0z m759 -6 c11 -4 16 -19 16 -50 l0 -43 -30 10 c-26 10 -30 16 -30 50 0 40 9
46 44 33z m1539 -1 c-7 -2 -19 -2 -25 0 -7 3 -2 5 12 5 14 0 19 -2 13 -5z m44
-9 c-3 -3 -12 -4 -19 -1 -8 3 -5 6 6 6 11 1 17 -2 13 -5z m683 -8 c0 -2 -8
-10 -17 -17 -16 -13 -17 -12 -4 4 13 16 21 21 21 13z m-2850 -41 c31 -22 91
-45 210 -83 l35 -11 -35 6 c-61 10 -154 42 -190 65 -19 13 -53 31 -75 41 -34
15 -35 17 -10 12 17 -4 46 -17 65 -30z m1473 28 c-7 -2 -21 -2 -30 0 -10 3 -4
5 12 5 17 0 24 -2 18 -5z m230 0 c-7 -2 -19 -2 -25 0 -7 3 -2 5 12 5 14 0 19
-2 13 -5z m3512 -13 c3 -5 1 -10 -4 -10 -6 0 -11 5 -11 10 0 6 2 10 4 10 3 0
8 -4 11 -10z m-4420 -49 c0 -21 -3 -37 -7 -34 -11 6 -10 73 0 73 4 0 8 -18 7
-39z m2545 35 c0 -2 -8 -10 -17 -17 -16 -13 -17 -12 -4 4 13 16 21 21 21 13z
m-2427 -32 c51 -14 122 -34 160 -46 l67 -20 0 -45 c0 -25 -4 -42 -9 -38 -6 3
-74 24 -152 46 -160 45 -180 53 -155 62 9 4 16 1 16 -4 0 -6 9 -9 20 -6 11 3
20 2 20 -3 0 -4 51 -22 113 -40 61 -18 118 -35 125 -38 8 -3 12 6 12 26 0 34
5 32 -164 77 -54 14 -105 24 -113 21 -8 -3 -11 -1 -8 4 3 6 2 10 -4 10 -5 0
-11 -6 -13 -12 -3 -7 -7 -2 -10 10 -4 12 -4 22 -2 22 3 0 46 -12 97 -26z
m-1153 -4 c0 -5 -2 -10 -4 -10 -3 0 -8 5 -11 10 -3 6 -1 10 4 10 6 0 11 -4 11
-10z m85 -16 c29 -26 29 -26 5 -20 -14 3 -31 6 -37 6 -7 0 -13 9 -13 20 0 26
9 25 45 -6z m4398 19 c-7 -2 -19 -2 -25 0 -7 3 -2 5 12 5 14 0 19 -2 13 -5z
m44 -9 c-3 -3 -12 -4 -19 -1 -8 3 -5 6 6 6 11 1 17 -2 13 -5z m728 -4 c3 -5 1
-10 -4 -10 -6 0 -11 5 -11 10 0 6 2 10 4 10 3 0 8 -4 11 -10z m-3338 -21 c23
0 25 -2 9 -8 -26 -10 -63 -2 -70 15 -4 11 -1 12 14 4 10 -5 31 -10 47 -11z
m2706 14 c-7 -2 -21 -2 -30 0 -10 3 -4 5 12 5 17 0 24 -2 18 -5z m-4452 -24
c15 -7 24 -7 33 0 15 13 46 5 46 -11 0 -6 -11 -7 -26 -4 -17 5 -23 3 -19 -4 8
-13 5 -13 -34 1 -17 6 -31 15 -31 20 0 12 7 11 31 -2z m124 2 c3 -5 2 -12 -3
-15 -5 -3 -9 1 -9 9 0 17 3 19 12 6z m46 -8 c13 -16 12 -17 -3 -4 -17 13 -22
21 -14 21 2 0 10 -8 17 -17z m1809 13 c0 -2 -8 -10 -17 -17 -16 -13 -17 -12
-4 4 13 16 21 21 21 13z m1292 -36 l-43 -39 33 -5 c18 -3 47 -7 63 -9 17 -2
-10 -5 -59 -6 -49 0 -87 2 -83 5 12 12 122 93 127 93 3 0 -14 -17 -38 -39z
m1693 0 c3 -5 -1 -10 -10 -10 -9 0 -13 5 -10 10 3 6 8 10 10 10 2 0 7 -4 10
-10z m45 0 c8 -5 11 -10 5 -10 -5 0 -17 5 -25 10 -8 5 -10 10 -5 10 6 0 17 -5
25 -10z m-4550 -28 c41 -12 86 -25 100 -31 21 -8 18 -9 -21 -8 -26 1 -45 5
-43 9 2 3 -9 9 -25 13 -16 3 -51 15 -77 26 -55 22 -43 21 66 -9z m1484 13 c-4
-8 -11 -15 -16 -15 -6 0 -5 6 2 15 7 8 14 15 16 15 2 0 1 -7 -2 -15z m-1768
-10 l29 -16 -30 5 c-16 2 -33 5 -37 5 -11 1 -10 21 1 21 5 0 22 -7 37 -15z
m128 -10 c8 -8 34 -18 58 -21 68 -10 60 -16 -12 -10 -36 3 -68 5 -72 6 -5 0
-7 6 -5 13 1 7 -7 11 -20 9 -12 -2 -24 1 -26 6 -10 15 61 13 77 -3z m1146 -81
l0 -42 -35 11 c-33 10 -35 13 -35 53 l0 42 35 -11 c33 -10 35 -13 35 -53z
m1420 42 c0 -2 -17 -14 -37 -25 l-38 -21 30 25 c28 23 45 31 45 21z m-467 -13
c-7 -2 -19 -2 -25 0 -7 3 -2 5 12 5 14 0 19 -2 13 -5z m-1926 -36 c10 -16 -4
-17 -38 -2 l-34 15 33 -2 c19 -1 36 -6 39 -11z m650 -102 c194 -58 356 -105
360 -105 3 0 4 -3 1 -6 -4 -3 -50 8 -105 24 -54 17 -179 54 -278 82 -202 59
-354 108 -341 109 5 1 168 -46 363 -104z m648 62 l120 -35 3 -41 3 -40 -48 16
c-80 26 -70 30 15 7 21 -6 23 -4 20 21 -3 25 -10 30 -78 50 -41 12 -99 29
-127 38 l-53 16 0 -28 c0 -27 4 -30 68 -46 65 -18 107 -34 87 -35 -5 0 -44 10
-85 23 l-75 23 -3 38 c-3 33 -1 38 15 33 10 -3 72 -21 138 -40z m645 28 c0
-10 -10 -15 -34 -15 -61 0 -55 27 7 29 18 1 27 -4 27 -14z m370 11 c0 -2 -47
-37 -104 -79 -58 -41 -103 -70 -100 -64 3 7 48 42 102 79 100 70 102 70 102
64z m-310 -31 c0 -2 -13 -11 -30 -20 -32 -17 -106 -20 -115 -6 -3 6 8 8 27 5
18 -3 51 1 73 10 22 8 41 15 43 15 1 1 2 -1 2 -4z m540 -19 c0 -3 -15 -14 -32
-26 l-33 -22 30 26 c31 27 35 29 35 22z m120 -41 c-14 -17 -30 -20 -30 -6 0 5
8 12 18 14 9 3 19 5 21 6 2 0 -2 -6 -9 -14z m-190 -9 c0 -2 -8 -10 -17 -17
-16 -13 -17 -12 -4 4 13 16 21 21 21 13z m60 -73 c0 -21 -3 -24 -9 -14 -5 8
-7 20 -4 28 8 21 13 15 13 -14z m22 -5 c-7 -7 -12 -8 -12 -2 0 14 12 26 19 19
2 -3 -1 -11 -7 -17z m-1734 -56 c2 -7 -2 -10 -12 -6 -9 3 -16 11 -16 16 0 13
23 5 28 -10z m229 12 c-3 -3 -12 -4 -19 -1 -8 3 -5 6 6 6 11 1 17 -2 13 -5z
m70 -20 c-3 -3 -12 -4 -19 -1 -8 3 -5 6 6 6 11 1 17 -2 13 -5z m270 -80 c-3
-3 -12 -4 -19 -1 -8 3 -5 6 6 6 11 1 17 -2 13 -5z m-28 -93 c9 -16 8 -18 -9
-14 -21 5 -25 15 -13 26 9 10 11 9 22 -12z"/>
<path d="M4653 6410 c0 -25 2 -35 4 -22 2 12 2 32 0 45 -2 12 -4 2 -4 -23z"/>
<path d="M6926 5310 c-55 -22 -106 -65 -106 -91 0 -50 85 -99 218 -126 105
-21 349 -21 466 1 149 26 229 80 207 139 -12 30 -65 67 -96 67 -16 0 -15 -3
10 -19 17 -10 39 -28 49 -40 20 -22 20 -22 -2 -43 l-21 -22 -48 26 c-55 29
-118 46 -220 56 l-73 8 6 -38 c8 -49 -5 -49 -48 1 l-33 38 -91 -8 c-98 -8
-189 -31 -220 -54 -27 -21 -52 -18 -59 6 -10 30 27 64 101 94 72 30 35 34 -40
5z m502 -99 c3 -8 -1 -12 -9 -9 -7 2 -15 10 -17 17 -3 8 1 12 9 9 7 -2 15 -10
17 -17z"/>
<path d="M4852 5730 c0 -19 2 -27 5 -17 2 9 2 25 0 35 -3 9 -5 1 -5 -18z"/>
<path d="M5057 5515 c-37 -34 -60 -46 -103 -55 -31 -7 -64 -10 -75 -7 -18 5
-47 -18 -36 -29 13 -13 89 -15 138 -4 63 15 139 79 139 116 0 13 -3 24 -7 24
-5 -1 -29 -21 -56 -45z"/>
<path d="M4683 5278 c-53 -11 -55 -28 -8 -64 40 -30 43 -44 16 -68 -13 -12
-27 -15 -45 -10 -33 8 -33 -1 -1 -22 23 -15 27 -15 60 5 28 16 41 18 61 11 39
-15 69 -12 89 10 24 26 16 32 -22 18 -24 -9 -38 -9 -58 0 -36 17 -41 39 -16
73 40 54 16 68 -76 47z m50 -39 c-17 -17 -24 -19 -42 -10 -33 18 -25 31 21 31
l42 0 -21 -21z"/>
<path d="M6000 6246 c0 -7 -8 -20 -17 -27 -15 -13 -16 -12 -10 9 5 23 4 24
-44 17 -53 -7 -148 -31 -156 -38 -9 -9 84 -193 117 -230 41 -47 98 -77 145
-77 102 0 204 126 239 293 l14 67 -144 0 c-116 0 -144 -3 -144 -14z m190 -6
c0 -5 -7 -7 -15 -4 -8 4 -15 8 -15 10 0 2 7 4 15 4 8 0 15 -4 15 -10z m40 6
c0 -3 -4 -8 -10 -11 -5 -3 -10 -1 -10 4 0 6 5 11 10 11 6 0 10 -2 10 -4z"/>
<path d="M7111 5651 c-18 -11 -5 -31 20 -31 13 0 19 7 19 22 0 21 0 21 -16 2
-13 -16 -15 -16 -10 -1 6 20 6 20 -13 8z"/>
<path d="M2766 5561 c-4 -5 3 -7 14 -4 23 6 26 13 6 13 -8 0 -17 -4 -20 -9z"/>
<path d="M2706 5551 c-3 -4 6 -6 19 -3 14 2 25 6 25 8 0 8 -39 4 -44 -5z"/>
<path d="M2648 5543 c7 -3 16 -2 19 1 4 3 -2 6 -13 5 -11 0 -14 -3 -6 -6z"/>
<path d="M2793 5453 c0 -9 4 -10 14 -2 7 6 13 12 13 14 0 1 -6 2 -13 2 -8 0
-14 -6 -14 -14z"/>
<path d="M2781 5134 c0 -11 3 -14 6 -6 3 7 2 16 -1 19 -3 4 -6 -2 -5 -13z"/>
<path d="M2771 5074 c0 -11 3 -14 6 -6 3 7 2 16 -1 19 -3 4 -6 -2 -5 -13z"/>
<path d="M3898 5023 c7 -3 16 -2 19 1 4 3 -2 6 -13 5 -11 0 -14 -3 -6 -6z"/>
<path d="M3938 5013 c7 -3 16 -2 19 1 4 3 -2 6 -13 5 -11 0 -14 -3 -6 -6z"/>
<path d="M3978 5003 c7 -3 16 -2 19 1 4 3 -2 6 -13 5 -11 0 -14 -3 -6 -6z"/>
<path d="M3818 4973 c7 -3 16 -2 19 1 4 3 -2 6 -13 5 -11 0 -14 -3 -6 -6z"/>
<path d="M3851 4966 c7 -7 291 -77 296 -73 3 4 -276 77 -293 77 -4 0 -5 -2 -3
-4z"/>
<path d="M4190 4875 c46 -18 64 -17 25 0 -16 8 -37 14 -45 14 -8 0 1 -7 20
-14z"/>
<path d="M3810 4856 c-46 -13 -112 -45 -141 -68 -45 -37 -50 -93 -11 -131 36
-34 62 -43 396 -132 154 -41 418 -111 586 -155 344 -92 427 -103 543 -76 131
31 197 81 197 151 0 62 -27 90 -108 114 -37 11 -335 85 -663 166 -524 127
-606 145 -675 144 -44 0 -99 -6 -124 -13z m153 -23 c-13 -2 -33 -2 -45 0 -13
2 -3 4 22 4 25 0 35 -2 23 -4z m-96 -9 c-3 -3 -12 -4 -19 -1 -8 3 -5 6 6 6 11
1 17 -2 13 -5z m160 0 c-3 -3 -12 -4 -19 -1 -8 3 -5 6 6 6 11 1 17 -2 13 -5z
m27 -78 c31 -20 34 -46 6 -46 -14 0 -20 6 -18 17 4 22 -27 29 -58 12 -20 -10
-27 -10 -42 4 -25 23 -48 21 -67 -5 -13 -20 -18 -21 -37 -9 -19 12 -23 11 -35
-5 -10 -14 -16 -15 -26 -5 -14 14 3 27 63 48 49 18 181 11 214 -11z m376 -26
c-8 -5 -19 -10 -25 -10 -5 0 -3 5 5 10 8 5 20 10 25 10 6 0 3 -5 -5 -10z
m-716 -51 c17 -10 26 -19 20 -19 -17 0 -64 40 -63 53 0 8 3 7 6 -1 3 -8 19
-22 37 -33z m743 35 c-3 -3 -12 -4 -19 -1 -8 3 -5 6 6 6 11 1 17 -2 13 -5z
m-595 -65 l33 -1 -34 -8 c-21 -5 -45 -4 -60 3 -14 5 -33 10 -41 9 -10 -1 -11
0 -2 4 6 3 10 10 7 14 -3 5 10 3 29 -5 20 -8 50 -15 68 -16z m723 -18 c22 -5
59 -14 81 -20 l42 -11 -32 -33 c-18 -17 -37 -40 -43 -50 -9 -18 -14 -18 -111
9 -56 15 -102 30 -102 33 0 3 16 17 36 30 19 13 40 33 45 43 6 11 17 17 27 14
9 -3 35 -9 57 -15z m-698 -7 c-3 -3 -12 -4 -19 -1 -8 3 -5 6 6 6 11 1 17 -2
13 -5z m40 -10 c-3 -3 -12 -4 -19 -1 -8 3 -5 6 6 6 11 1 17 -2 13 -5z m260
-40 c-3 -3 -12 -4 -19 -1 -8 3 -5 6 6 6 11 1 17 -2 13 -5z m1012 -20 c29 -9
51 -18 48 -21 -3 -3 -27 2 -53 11 -26 9 -57 16 -68 16 -12 0 -28 5 -36 10 -19
12 31 5 109 -16z m-932 0 c-3 -3 -12 -4 -19 -1 -8 3 -5 6 6 6 11 1 17 -2 13
-5z m-70 -10 c-3 -3 -12 -4 -19 -1 -8 3 -5 6 6 6 11 1 17 -2 13 -5z m128 -4
c13 -5 14 -9 5 -9 -8 0 -24 4 -35 9 -13 5 -14 9 -5 9 8 0 24 -4 35 -9z m-88
-6 c-3 -3 -12 -4 -19 -1 -8 3 -5 6 6 6 11 1 17 -2 13 -5z m593 2 c0 -2 -8 -10
-17 -17 -16 -13 -17 -12 -4 4 13 16 21 21 21 13z m-525 -16 c25 -11 -1 -11
-35 0 -20 6 -21 8 -5 8 11 0 29 -3 40 -8z m72 4 c-3 -3 -12 -4 -19 -1 -8 3 -5
6 6 6 11 1 17 -2 13 -5z m40 -10 c-3 -3 -12 -4 -19 -1 -8 3 -5 6 6 6 11 1 17
-2 13 -5z m-60 -10 c-3 -3 -12 -4 -19 -1 -8 3 -5 6 6 6 11 1 17 -2 13 -5z
m118 -4 c13 -5 14 -9 5 -9 -8 0 -24 4 -35 9 -13 5 -14 9 -5 9 8 0 24 -4 35 -9z
m728 -32 c42 -21 47 -51 10 -56 -17 -3 -20 1 -16 17 6 25 -21 39 -42 21 -12
-10 -20 -9 -40 4 -32 21 -62 20 -74 -1 -8 -14 -13 -15 -35 -5 -31 14 -52 7
-59 -20 -4 -12 -12 -18 -23 -16 -50 9 -8 52 74 74 59 17 154 8 205 -18z m-670
15 c-7 -2 -19 -2 -25 0 -7 3 -2 5 12 5 14 0 19 -2 13 -5z m74 -19 c-3 -3 -12
-4 -19 -1 -8 3 -5 6 6 6 11 1 17 -2 13 -5z m40 -10 c-3 -3 -12 -4 -19 -1 -8 3
-5 6 6 6 11 1 17 -2 13 -5z m628 -54 c-20 -22 -14 -26 16 -10 10 6 19 8 19 6
0 -13 -59 -34 -110 -40 l-55 -6 55 19 c30 11 62 28 70 39 8 11 17 18 19 16 2
-2 -4 -13 -14 -24z m-588 14 c-3 -3 -12 -4 -19 -1 -8 3 -5 6 6 6 11 1 17 -2
13 -5z m118 -30 c38 -13 38 -13 5 -7 -19 3 -53 12 -75 19 -38 13 -38 13 -5 7
19 -3 53 -12 75 -19z m175 -24 c20 -6 21 -8 5 -8 -11 0 -29 3 -40 8 -25 11 1
11 35 0z m148 -17 c-10 -2 -26 -2 -35 0 -10 3 -2 5 17 5 19 0 27 -2 18 -5z"/>
<path d="M4518 4583 c7 -3 16 -2 19 1 4 3 -2 6 -13 5 -11 0 -14 -3 -6 -6z"/>
<path d="M4588 4563 c6 -2 18 -2 25 0 6 3 1 5 -13 5 -14 0 -19 -2 -12 -5z"/>
<path d="M4630 4855 c46 -18 74 -17 35 0 -16 8 -39 14 -50 14 -13 0 -8 -5 15
-14z"/>
<path d="M4538 4803 c7 -3 16 -2 19 1 4 3 -2 6 -13 5 -11 0 -14 -3 -6 -6z"/>
<path d="M5100 4751 c17 -10 265 -71 283 -70 14 1 -273 79 -288 79 -5 -1 -3
-4 5 -9z"/>
<path d="M4858 4723 c7 -3 16 -2 19 1 4 3 -2 6 -13 5 -11 0 -14 -3 -6 -6z"/>
<path d="M5000 4690 c63 -16 122 -29 130 -29 22 1 -157 47 -205 53 -22 3 12
-8 75 -24z"/>
<path d="M5525 4644 c72 -18 137 -33 145 -33 8 1 -43 16 -115 35 -71 18 -137
33 -145 33 -8 -1 44 -16 115 -35z"/>
<path d="M5158 4653 c7 -3 16 -2 19 1 4 3 -2 6 -13 5 -11 0 -14 -3 -6 -6z"/>
<path d="M5210 4640 c14 -4 34 -8 45 -8 16 0 15 2 -5 8 -14 4 -34 8 -45 8 -16
0 -15 -2 5 -8z"/>
<path d="M5345 4609 c39 -10 77 -18 85 -18 8 1 -16 9 -55 20 -38 10 -77 18
-85 18 -8 -1 17 -9 55 -20z"/>
<path d="M5790 4581 c148 -39 168 -43 150 -32 -17 10 -225 62 -243 60 -7 0 35
-13 93 -28z"/>
<path d="M5615 4544 c94 -24 177 -43 185 -41 15 2 -327 88 -345 86 -5 0 67
-21 160 -45z"/>
<path d="M2932 4192 c2 -17 10 -28 22 -30 11 -3 16 0 11 7 -3 6 -12 8 -18 4
-7 -3 -4 3 6 14 17 20 17 21 -3 26 -18 5 -21 2 -18 -21z"/>
<path d="M4148 3830 c2 -16 8 -30 13 -30 5 0 12 0 16 0 4 0 8 6 9 15 1 9 -2
12 -9 8 -7 -4 -6 1 2 10 8 10 9 17 3 17 -6 0 -17 2 -25 5 -10 5 -13 -1 -9 -25z"/>
<path d="M3842 8000 c0 -14 2 -19 5 -12 2 6 2 18 0 25 -3 6 -5 1 -5 -13z"/>
<path d="M5732 7995 c0 -16 2 -22 5 -12 2 9 2 23 0 30 -3 6 -5 -1 -5 -18z"/>
<path d="M3505 7960 c-3 -6 1 -7 9 -4 18 7 21 14 7 14 -6 0 -13 -4 -16 -10z"/>
<path d="M4223 7935 c0 -22 2 -30 4 -17 2 12 2 30 0 40 -3 9 -5 -1 -4 -23z"/>
<path d="M4582 7880 c0 -19 2 -27 5 -17 2 9 2 25 0 35 -3 9 -5 1 -5 -18z"/>
<path d="M4992 7730 c0 -14 2 -19 5 -12 2 6 2 18 0 25 -3 6 -5 1 -5 -13z"/>
<path d="M5655 7671 l-119 -28 -4 -119 c-2 -65 -6 -121 -8 -123 -2 -2 -4 47
-4 111 0 63 -2 117 -5 120 -11 10 -144 -35 -150 -51 -4 -9 -6 -256 -5 -550 0
-405 4 -538 13 -550 10 -12 9 -13 -1 -7 -11 7 -12 5 -3 -10 19 -34 38 -54 50
-54 7 0 10 -4 7 -9 -3 -5 1 -14 9 -21 10 -9 15 -9 15 -1 0 6 -6 11 -12 12 -7
0 -4 4 7 9 11 4 24 4 29 0 15 -14 37 1 31 21 -6 19 9 27 19 10 3 -5 15 -7 27
-4 13 4 17 8 9 13 -8 5 -7 9 5 13 9 4 14 3 11 -1 -2 -4 -1 -14 3 -21 16 -26
22 77 15 268 -5 139 -3 191 5 191 6 0 11 -19 11 -47 1 -27 1 -142 2 -258 1
-115 3 -200 5 -187 3 13 9 19 15 16 7 -5 9 -1 5 9 -5 13 -1 16 16 14 18 -2 22
3 21 25 -1 15 3 25 7 22 10 -6 12 7 9 44 -1 14 4 22 14 22 9 0 16 5 16 12 0
23 18 -7 23 -37 2 -16 5 203 6 487 1 356 4 519 12 523 7 5 10 -120 9 -426 -2
-557 -2 -572 10 -564 6 3 10 -4 10 -17 0 -18 -2 -20 -10 -8 -7 11 -10 5 -10
-23 0 -23 4 -36 10 -32 6 3 10 -3 10 -14 0 -12 7 -21 15 -21 8 0 15 -4 15 -10
0 -5 -4 -10 -9 -10 -5 0 -11 -10 -14 -22 -5 -21 -5 -21 7 -6 7 10 15 15 18 12
3 -3 9 20 13 50 5 41 12 60 28 71 12 8 16 15 9 15 -7 0 -10 5 -7 10 9 15 25
12 25 -4 0 -8 8 -17 18 -21 16 -7 16 -8 -2 -14 -19 -7 -19 -8 2 -13 16 -5 22
-1 24 10 1 10 2 160 2 334 l1 316 -30 -5 c-16 -4 -31 -10 -33 -15 -8 -19 -21
-6 -26 25 -9 54 -15 203 -16 380 l0 167 -27 -1 c-16 0 -82 -13 -148 -28z
m-157 -244 c3 -48 3 -48 -25 -45 -24 2 -28 8 -31 36 -4 37 13 64 37 60 11 -2
17 -17 19 -51z m240 2 c2 -35 -1 -48 -13 -52 -30 -12 -45 4 -45 47 0 49 6 58
35 54 16 -2 21 -12 23 -49z m-110 -201 c3 -39 0 -47 -17 -53 -28 -9 -38 -1
-45 39 -9 48 1 68 33 64 23 -3 26 -8 29 -50z m110 -1 c2 -36 -1 -49 -13 -53
-25 -10 -45 15 -45 56 0 43 7 52 35 48 16 -2 21 -12 23 -51z m-234 -173 c4
-13 4 -35 0 -49 -5 -19 -13 -25 -35 -25 -28 0 -29 2 -29 45 0 31 5 47 17 53
23 14 40 5 47 -24z m383 -455 c2 -16 -1 -19 -9 -11 -5 5 -7 15 -4 21 10 15 12
14 13 -10z m-367 -109 c0 -5 -7 -7 -15 -4 -8 4 -15 8 -15 10 0 2 7 4 15 4 8 0
15 -4 15 -10z m-113 -39 c-10 -12 -9 -14 6 -8 10 4 16 3 12 -2 -3 -5 -1 -12 5
-16 5 -3 10 1 10 9 0 8 4 18 10 21 6 4 7 -1 3 -12 -11 -33 -14 -34 -44 -12
-30 21 -32 36 -5 36 13 0 13 -3 3 -16z"/>
<path d="M4991 7674 c0 -11 3 -14 6 -6 3 7 2 16 -1 19 -3 4 -6 -2 -5 -13z"/>
<path d="M4990 7017 l-35 -12 -2 -135 c-1 -108 1 -126 9 -90 5 25 9 55 10 67
0 19 2 20 15 7 30 -30 86 -4 76 35 -3 10 0 21 5 25 5 3 9 -2 9 -12 0 -40 6
-44 12 -8 9 58 31 59 31 1 0 -52 19 -54 21 -2 l2 32 6 -35 c5 -27 12 -36 29
-38 34 -5 53 15 46 47 -10 42 -19 43 -19 3 0 -31 -4 -38 -22 -40 -20 -3 -23 1
-23 33 0 23 5 38 15 41 12 5 13 10 4 20 -6 8 -7 14 -2 14 5 0 8 12 7 28 -1 27
-1 27 -80 29 -43 1 -95 -3 -114 -10z m0 -22 c-12 -14 -10 -15 14 -11 17 3 24
1 20 -6 -4 -6 -2 -13 4 -17 6 -4 14 -28 17 -54 6 -45 5 -47 -20 -47 -22 0 -25
4 -25 34 0 19 5 38 10 41 16 10 11 28 -6 21 -8 -3 -12 -2 -9 4 3 6 1 10 -6 10
-6 0 -9 -8 -6 -19 2 -10 1 -25 -4 -32 -6 -9 -9 2 -7 31 1 25 6 48 12 52 17 12
19 9 6 -7z m127 -30 c0 -8 -4 -12 -9 -9 -5 3 -6 10 -3 15 9 13 12 11 12 -6z
m-34 -20 c-7 -21 -12 -19 -10 4 0 11 5 18 9 15 4 -3 5 -11 1 -19z m68 2 c-10
-9 -11 -8 -5 6 3 10 9 15 12 12 3 -3 0 -11 -7 -18z"/>
<path d="M5211 7003 c1 -23 2 -24 6 -6 2 13 13 24 26 26 18 4 17 5 -5 6 -24 1
-28 -3 -27 -26z"/>
<path d="M5270 7026 c0 -2 16 -6 35 -8 19 -2 35 0 35 4 0 4 -16 8 -35 8 -19 0
-35 -2 -35 -4z"/>
<path d="M4331 6951 c-10 -6 -9 -10 3 -14 8 -3 18 -2 21 3 8 13 -9 20 -24 11z"/>
<path d="M4251 6934 c0 -11 3 -14 6 -6 3 7 2 16 -1 19 -3 4 -6 -2 -5 -13z"/>
<path d="M4261 6903 c-10 -26 -10 -27 4 -9 8 11 15 23 15 28 0 15 -7 8 -19
-19z"/>
<path d="M5301 6906 c0 -16 -9 -38 -18 -49 -10 -11 -13 -17 -7 -14 7 4 17 1
23 -7 14 -16 4 -49 -13 -39 -6 3 -8 3 -4 -2 4 -4 2 -15 -5 -24 -10 -14 -10
-14 4 -4 12 10 18 10 27 1 9 -9 9 -15 -1 -27 -11 -14 -10 -14 5 -2 10 7 16 17
13 21 -3 5 1 11 7 13 10 4 10 6 0 6 -10 1 -10 6 -1 22 8 15 8 19 0 15 -6 -4
-11 0 -11 9 0 9 4 14 8 11 5 -3 9 1 9 9 0 8 -5 13 -11 12 -6 -1 -14 16 -17 38
-5 33 -6 35 -8 11z m14 -56 c3 -5 1 -10 -4 -10 -6 0 -11 5 -11 10 0 6 2 10 4
10 3 0 8 -4 11 -10z m2 -59 c0 -11 -5 -18 -9 -15 -4 3 -5 11 -1 19 7 21 12 19
10 -4z"/>
<path d="M4340 6911 c0 -6 4 -13 10 -16 6 -3 7 1 4 9 -7 18 -14 21 -14 7z"/>
<path d="M5241 6900 c0 -14 4 -32 9 -40 8 -12 10 -12 9 5 0 11 -4 29 -9 40 -8
18 -9 18 -9 -5z"/>
<path d="M4834 6798 c1 -107 20 -120 24 -17 2 55 -1 79 -11 87 -12 10 -14 -1
-13 -70z"/>
<path d="M4748 6863 c45 -4 54 -22 31 -65 -6 -11 -7 -18 -1 -14 5 3 10 -6 11
-19 3 -49 4 -55 14 -55 5 0 7 10 3 23 -3 12 -6 48 -6 80 l0 57 -47 -2 -48 -1
43 -4z"/>
<path d="M4765 6841 c-3 -5 -2 -12 3 -15 5 -3 9 1 9 9 0 17 -3 19 -12 6z"/>
<path d="M4715 6784 c0 -47 2 -52 13 -37 8 11 11 30 7 48 -10 51 -20 46 -20
-11z"/>
<path d="M4343 6813 c0 -7 6 -13 14 -13 7 0 13 6 13 13 0 8 -6 14 -13 14 -8 0
-14 -6 -14 -14z"/>
<path d="M4741 6814 c0 -11 3 -14 6 -6 3 7 2 16 -1 19 -3 4 -6 -2 -5 -13z"/>
<path d="M4678 6796 c-3 -14 -2 -30 2 -36 4 -6 7 5 8 25 2 40 -4 46 -10 11z"/>
<path d="M5133 6755 c0 -22 2 -30 4 -17 2 12 2 30 0 40 -3 9 -5 -1 -4 -23z"/>
<path d="M5172 6755 c0 -16 2 -22 5 -12 2 9 2 23 0 30 -3 6 -5 -1 -5 -18z"/>
<path d="M4333 6758 c-12 -21 -12 -38 1 -38 24 0 46 24 36 40 -8 13 -10 13
-10 -2 0 -9 -5 -20 -12 -24 -8 -5 -9 0 -6 14 7 25 3 28 -9 10z"/>
<path d="M5285 6749 c-4 -6 -5 -12 -2 -15 2 -3 7 2 10 11 7 17 1 20 -8 4z"/>
<path d="M5860 6489 c0 -5 5 -7 10 -4 6 3 10 8 10 11 0 2 -4 4 -10 4 -5 0 -10
-5 -10 -11z"/>
<path d="M5890 6470 c0 -5 5 -10 11 -10 5 0 7 5 4 10 -3 6 -8 10 -11 10 -2 0
-4 -4 -4 -10z"/>
<path d="M5685 6460 c4 -6 11 -8 16 -5 14 9 11 15 -7 15 -8 0 -12 -5 -9 -10z"/>
<path d="M5975 6440 c-19 -8 -19 -9 2 -9 12 -1 25 4 28 9 7 12 -2 12 -30 0z"/>
<path d="M5693 6425 c0 -11 4 -12 14 -4 7 6 13 13 13 15 0 2 -6 4 -13 4 -8 0
-14 -7 -14 -15z"/>
<path d="M5771 6414 c0 -11 3 -14 6 -6 3 7 2 16 -1 19 -3 4 -6 -2 -5 -13z"/>
<path d="M5530 6395 c0 -8 4 -15 8 -15 5 0 9 7 9 15 0 8 -4 15 -9 15 -4 0 -8
-7 -8 -15z"/>
<path d="M3740 6210 c0 -4 7 -13 15 -20 12 -10 15 -9 15 7 0 11 -7 20 -15 20
-8 0 -15 -4 -15 -7z"/>
<path d="M3653 6184 c-3 -9 0 -20 8 -25 23 -14 32 -10 14 7 -13 14 -14 19 -3
25 10 7 10 9 0 9 -7 0 -15 -7 -19 -16z"/>
<path d="M3895 6190 c3 -5 12 -7 20 -3 21 7 19 13 -6 13 -11 0 -18 -4 -14 -10z"/>
<path d="M3726 6170 c-11 -3 -15 -9 -10 -12 5 -3 18 -2 28 2 11 3 15 9 10 12
-5 3 -18 2 -28 -2z"/>
<path d="M3776 6171 c-4 -5 -2 -12 3 -15 5 -4 12 -2 15 3 4 5 2 12 -3 15 -5 4
-12 2 -15 -3z"/>
<path d="M3566 6093 c-3 -3 -3 -10 0 -14 7 -12 34 -11 34 0 0 11 -26 22 -34
14z"/>
<path d="M3620 6085 c0 -8 2 -15 4 -15 2 0 6 7 10 15 3 8 1 15 -4 15 -6 0 -10
-7 -10 -15z"/>
<path d="M3823 6045 c0 -33 2 -45 4 -27 2 18 2 45 0 60 -2 15 -4 0 -4 -33z"/>
<path d="M3483 6040 c-35 -32 -43 -60 -17 -60 9 0 14 5 12 12 -3 7 6 23 19 36
13 12 23 27 23 32 0 14 -1 13 -37 -20z"/>
<path d="M3520 5984 c0 -14 3 -14 15 -4 8 7 15 14 15 16 0 2 -7 4 -15 4 -8 0
-15 -7 -15 -16z"/>
<path d="M3431 5954 c0 -11 3 -14 6 -6 3 7 2 16 -1 19 -3 4 -6 -2 -5 -13z"/>
<path d="M3465 5960 c-3 -5 3 -10 14 -10 12 0 21 5 21 10 0 6 -6 10 -14 10 -8
0 -18 -4 -21 -10z"/>
<path d="M3585 5961 c-3 -6 4 -9 15 -8 11 1 20 5 20 9 0 11 -28 10 -35 -1z"/>
<path d="M1844 5075 c0 -60 1 -84 3 -52 2 32 2 81 0 110 -2 29 -3 3 -3 -58z"/>
<path d="M2960 5150 c0 -12 329 -10 336 2 3 4 -72 8 -165 8 -104 0 -171 -4
-171 -10z"/>
<path d="M8320 5148 c-36 -5 -121 -7 -190 -4 -94 4 -132 2 -155 -8 -26 -12 -3
-14 192 -11 l222 3 4 -32 c3 -22 4 -18 5 17 1 26 -1 46 -5 46 -5 -1 -37 -6
-73 -11z"/>
<path d="M8392 5010 c0 -19 2 -27 5 -17 2 9 2 25 0 35 -3 9 -5 1 -5 -18z"/>
<path d="M3020 5020 c-66 -6 -59 -7 55 -7 72 -1 139 2 150 7 23 10 -88 10
-205 0z"/>
<path d="M8388 4898 c-3 -21 -9 -23 -85 -28 -88 -5 -125 -20 -52 -20 24 -1 68
-3 97 -6 l52 -6 0 41 c0 44 -7 55 -12 19z"/>
<path d="M1872 4660 c0 -14 2 -19 5 -12 2 6 2 18 0 25 -3 6 -5 1 -5 -13z"/>
<path d="M1890 4528 c0 -17 16 -18 204 -18 126 0 207 4 211 10 4 6 -11 10 -37
11 -24 1 -118 4 -211 8 -155 6 -167 5 -167 -11z"/>
<path d="M1910 4405 c0 -7 10 -13 23 -12 12 0 96 -3 187 -7 91 -5 163 -6 160
-3 -3 3 -72 10 -155 16 -82 6 -165 13 -182 16 -23 2 -33 0 -33 -10z"/>
<path d="M8190 4349 c-74 -4 -160 -8 -190 -9 l-55 -2 40 -9 c22 -4 106 -8 186
-8 127 -1 148 1 153 15 4 9 5 17 4 18 -2 1 -64 -2 -138 -5z"/>
<path d="M1946 4258 c3 -4 96 -8 206 -8 111 0 198 3 194 8 -10 10 -406 10
-400 0z"/>
<path d="M6457 4243 c-12 -11 -8 -25 5 -17 6 4 17 -1 25 -11 13 -19 18 -9 7
19 -6 16 -26 21 -37 9z"/>
<path d="M6397 4194 c-19 -16 -23 -24 -13 -24 9 0 16 5 16 10 0 6 4 10 10 10
5 0 7 -7 4 -15 -4 -8 -1 -15 6 -15 6 0 8 5 5 11 -4 5 7 15 24 22 38 14 40 24
4 25 -16 0 -40 -10 -56 -24z"/>
<path d="M6457 4149 c-22 -21 -42 -37 -46 -35 -4 3 -8 -5 -8 -17 -2 -17 8 -11
50 31 28 28 49 53 47 56 -3 2 -22 -13 -43 -35z"/>
<path d="M2386 4104 c-3 -9 -2 -23 4 -32 7 -14 9 -10 10 16 0 35 -5 41 -14 16z"/>
<path d="M6635 4013 c-22 -1 -77 -5 -122 -9 -46 -3 -83 -9 -83 -13 0 -7 166
-4 238 5 39 5 63 26 25 22 -10 -1 -36 -3 -58 -5z"/>
<path d="M8080 4005 c-17 -10 -20 -14 -9 -15 9 0 22 7 29 15 15 18 12 18 -20
0z"/>
<path d="M6635 3733 c-155 -4 -639 -33 -644 -39 -9 -8 334 -4 477 7 138 10
354 7 1112 -16 144 -5 190 -1 190 16 0 5 -75 9 -167 9 -93 0 -231 4 -308 10
-167 11 -507 18 -660 13z"/>
<path d="M8031 3618 c-97 -36 -471 -91 -683 -100 -32 -2 -58 -5 -58 -8 0 -21
26 -26 93 -18 252 30 414 52 497 68 52 11 110 20 128 22 21 1 38 10 44 21 12
24 9 27 -21 15z"/>
<path d="M2877 3559 c-159 -38 -265 -183 -376 -514 -22 -66 -45 -121 -51 -123
-24 -8 -155 43 -203 80 -57 42 -108 102 -127 148 -27 65 -80 14 -80 -77 1 -67
28 -120 91 -177 63 -57 134 -91 225 -108 58 -11 65 -15 61 -33 -26 -110 -145
-495 -158 -509 -5 -5 -34 -2 -71 9 -69 19 -144 15 -206 -11 -47 -19 -70 -40
-93 -86 -41 -80 -13 -175 69 -233 40 -28 50 -30 125 -30 69 0 90 5 132 27 28
14 63 40 79 57 17 17 36 31 44 31 8 0 63 -35 121 -79 290 -214 425 -281 569
-281 78 0 136 24 181 76 48 54 65 154 26 154 -7 0 -32 -9 -56 -20 -126 -57
-281 -3 -639 224 -58 36 -108 67 -112 68 -4 2 8 35 27 73 31 65 134 365 169
496 l16 56 77 25 c258 85 433 300 433 530 0 79 -18 129 -62 175 -46 48 -137
70 -211 52z m109 -164 c41 -62 -11 -216 -109 -321 -50 -54 -155 -124 -185
-124 -14 0 68 241 113 336 58 120 141 170 181 109z m-583 -1010 c-3 -9 -8 -14
-10 -11 -3 3 -2 9 2 15 9 16 15 13 8 -4z m-235 -274 c13 -8 11 -14 -15 -39
-36 -36 -75 -49 -112 -36 -32 12 -39 48 -14 76 15 17 26 19 72 14 29 -4 61
-10 69 -15z m84 -63 c-8 -8 -9 -4 -5 13 4 13 8 18 11 10 2 -7 -1 -18 -6 -23z"/>
<path d="M2227 3540 c2 -8 13 -26 24 -40 17 -21 19 -21 10 -3 -11 21 -9 22 62
25 123 5 219 -1 211 -15 -4 -7 5 -1 19 12 15 14 27 28 27 31 0 4 -80 7 -178 6
-154 -1 -178 -3 -175 -16z"/>
<path d="M3285 3493 c3 -8 5 -17 5 -19 0 -3 4 -3 9 0 8 5 66 -2 196 -25 33 -6
77 -20 98 -31 21 -10 46 -18 55 -16 30 7 -78 49 -173 68 -180 36 -196 38 -190
23z"/>
<path d="M4240 3481 c0 -5 12 -11 27 -14 26 -5 26 -4 8 9 -22 16 -35 18 -35 5z"/>
<path d="M2280 3450 c6 -11 13 -20 16 -20 2 0 0 9 -6 20 -6 11 -13 20 -16 20
-2 0 0 -9 6 -20z"/>
<path d="M6592 3454 c10 -10 20 -16 22 -13 3 3 -5 11 -17 18 -21 13 -21 12 -5
-5z"/>
<path d="M7895 3460 c-106 -11 -377 -61 -390 -73 -11 -10 13 -8 165 18 52 10
139 19 193 22 82 5 99 8 108 24 5 11 8 18 7 18 -2 -1 -39 -5 -83 -9z"/>
<path d="M2490 3440 c-6 -11 -8 -20 -6 -20 3 0 10 9 16 20 6 11 8 20 6 20 -3
0 -10 -9 -16 -20z"/>
<path d="M5915 3430 c-235 -7 -157 -22 103 -19 152 1 202 5 217 16 18 12 11
13 -65 11 -47 -2 -161 -5 -255 -8z"/>
<path d="M6421 3416 c-8 -9 -11 -104 -9 -326 3 -287 4 -314 21 -324 14 -8 20
-8 27 4 13 20 13 601 0 634 -11 29 -22 33 -39 12z"/>
<path d="M7059 3415 c-15 -8 -29 -22 -33 -31 -19 -49 -59 -393 -68 -582 -3
-42 -6 -51 -18 -45 -39 18 -118 14 -169 -7 -120 -52 -212 -233 -227 -450 -5
-67 -13 -100 -39 -155 -18 -38 -45 -81 -59 -94 -25 -24 -27 -24 -44 -8 -26 26
-22 251 6 418 29 168 29 192 -4 218 -36 28 -85 27 -112 -2 -16 -17 -28 -61
-52 -189 -51 -281 -105 -435 -162 -467 -25 -15 -28 -14 -42 4 -32 44 -30 102
15 423 11 78 17 152 14 163 -8 23 -61 59 -87 59 -34 0 -68 -23 -77 -54 -6 -17
-21 -111 -35 -209 -24 -166 -29 -185 -71 -272 -56 -116 -96 -165 -136 -165
-45 0 -52 30 -46 205 5 132 48 519 63 568 3 9 12 17 19 17 8 0 67 7 132 15
127 17 153 30 153 75 0 59 -48 71 -195 49 -42 -6 -78 -9 -81 -7 -2 3 4 48 15
99 10 52 22 108 25 126 7 44 -18 73 -70 80 -35 4 -45 1 -72 -23 -28 -26 -34
-42 -60 -169 l-28 -140 -90 -12 c-70 -9 -92 -16 -106 -33 -22 -28 -23 -49 -1
-79 15 -23 20 -23 98 -17 l82 6 -12 -73 c-47 -268 -64 -614 -36 -711 19 -64
73 -122 124 -131 83 -16 187 45 244 143 26 44 27 45 37 21 29 -72 41 -91 74
-111 24 -15 50 -22 84 -21 67 1 119 37 171 119 l41 64 19 -49 c26 -70 65 -101
129 -101 78 0 151 57 180 140 12 35 24 38 33 10 9 -30 53 -79 86 -95 32 -17
96 -20 132 -6 45 17 100 75 128 134 l27 58 12 -36 c17 -52 69 -102 114 -110
74 -14 133 30 191 144 l27 54 18 -39 c25 -58 72 -94 122 -94 80 0 140 51 190
162 12 27 24 48 27 48 3 0 15 -15 27 -33 12 -18 40 -46 64 -62 38 -26 52 -30
109 -29 80 1 131 24 185 85 61 67 126 235 126 327 0 35 2 37 80 90 88 60 157
182 130 232 -19 35 -47 24 -87 -37 -37 -54 -108 -122 -118 -111 -3 2 -14 40
-25 82 -34 135 -89 196 -184 204 -43 3 -66 -1 -115 -23 -139 -63 -225 -229
-237 -455 -10 -187 -86 -356 -137 -305 -26 26 -30 137 -14 357 12 154 13 215
5 233 -19 41 -96 54 -135 22 -22 -16 -31 -75 -43 -252 -9 -145 -15 -183 -41
-263 -29 -87 -82 -176 -104 -175 -6 0 -18 15 -27 34 -37 72 -13 539 52 1027 6
40 10 102 10 137 0 61 -1 65 -30 80 -36 18 -57 18 -91 0z m-1429 -475 c0 -5
-5 -10 -11 -10 -5 0 -7 5 -4 10 3 6 8 10 11 10 2 0 4 -4 4 -10z m2348 -80 c22
-24 52 -115 52 -158 0 -37 -1 -37 -39 -17 -69 35 -108 122 -77 170 20 30 39
32 64 5z m-2361 -12 c-3 -8 -6 -5 -6 6 -1 11 2 17 5 13 3 -3 4 -12 1 -19z
m2228 -186 c35 -54 82 -89 143 -105 23 -6 42 -16 42 -22 -1 -32 -33 -142 -55
-185 -28 -56 -52 -73 -98 -68 -27 3 -35 11 -60 59 -25 50 -29 68 -30 155 -2
102 9 214 21 213 4 0 21 -21 37 -47z m-939 -43 c27 -29 32 -180 9 -290 -20
-103 -74 -220 -109 -239 -23 -12 -28 -11 -46 5 -28 26 -40 77 -40 177 0 153
41 292 102 343 36 30 59 32 84 4z m804 -33 c0 -3 -4 -8 -10 -11 -5 -3 -10 -1
-10 4 0 6 5 11 10 11 6 0 10 -2 10 -4z m-1748 -168 c-7 -7 -12 -8 -12 -2 0 14
12 26 19 19 2 -3 -1 -11 -7 -17z"/>
<path d="M2310 3400 c6 -11 13 -20 16 -20 2 0 0 9 -6 20 -6 11 -13 20 -16 20
-2 0 0 -9 6 -20z"/>
<path d="M7896 3350 c-25 -38 -51 -70 -56 -70 -6 0 -10 -8 -10 -17 0 -10 -27
-54 -60 -98 -40 -52 -47 -64 -20 -35 22 25 73 95 113 155 85 128 90 135 84
135 -2 0 -25 -31 -51 -70z"/>
<path d="M3975 3366 c-50 -19 -130 -103 -178 -188 -52 -93 -117 -259 -177
-448 -75 -238 -73 -233 -112 -252 -20 -9 -47 -20 -60 -23 l-25 -6 0 108 c1 96
-2 114 -25 164 -16 35 -40 67 -64 85 -35 27 -44 29 -128 29 -82 0 -96 -3 -140
-29 -79 -46 -135 -111 -182 -211 -57 -121 -78 -202 -78 -305 0 -126 47 -215
138 -263 56 -29 156 -28 217 3 67 34 135 112 182 210 l42 87 65 16 c36 8 66
15 67 14 1 -1 -9 -47 -23 -102 -45 -189 -78 -439 -79 -590 0 -130 2 -144 25
-189 54 -108 162 -147 247 -89 56 38 87 81 122 173 49 127 65 226 65 400 0 88
-5 178 -12 209 -7 30 -11 55 -9 57 2 2 28 8 57 14 29 6 77 21 107 35 29 13 53
23 53 22 0 -1 -7 -38 -15 -82 -28 -157 -16 -236 46 -298 38 -38 41 -39 98 -35
73 5 116 32 175 110 57 74 138 240 144 294 4 35 1 44 -15 53 -29 15 -42 1
-108 -119 -70 -127 -108 -178 -142 -186 -36 -9 -45 10 -39 86 7 72 26 154 80
340 44 151 45 181 10 209 -33 26 -95 28 -117 4 -8 -10 -28 -58 -44 -107 -33
-105 -59 -136 -151 -179 -53 -25 -72 -29 -123 -25 -53 4 -63 8 -97 43 l-37 38
96 96 c110 110 182 212 250 355 106 223 117 393 29 458 -35 26 -87 31 -135 14z
m68 -205 c-3 -59 -48 -186 -104 -286 -48 -87 -160 -248 -167 -240 -9 9 113
369 153 452 65 133 121 169 118 74z m-291 -313 c-7 -7 -12 -8 -12 -2 0 6 3 14
7 17 3 4 9 5 12 2 2 -3 -1 -11 -7 -17z m-475 -175 c11 -28 14 -56 10 -106 -7
-80 -13 -93 -34 -75 -25 20 -63 109 -63 146 0 34 29 72 56 72 8 0 22 -17 31
-37z m-139 -230 c12 -17 38 -41 58 -54 30 -18 35 -25 29 -47 -19 -75 -122
-192 -170 -192 -30 0 -62 30 -71 66 -20 79 16 269 67 351 l22 36 21 -64 c12
-35 31 -78 44 -96z m-198 23 c0 -2 -7 -9 -15 -16 -13 -11 -14 -10 -9 4 5 14
24 23 24 12z m769 -223 c7 -14 19 -71 28 -126 14 -85 15 -116 5 -216 -21 -208
-80 -391 -126 -391 -57 0 -43 248 35 640 12 58 23 108 26 113 8 14 20 7 32
-20z m108 -295 c-2 -13 -4 -5 -4 17 -1 22 1 32 4 23 2 -10 2 -28 0 -40z m-10
-60 c-3 -8 -6 -5 -6 6 -1 11 2 17 5 13 3 -3 4 -12 1 -19z"/>
<path d="M7340 3365 c0 -8 4 -15 10 -15 5 0 7 7 4 15 -4 8 -8 15 -10 15 -2 0
-4 -7 -4 -15z"/>
<path d="M2345 3343 c10 -14 26 -41 37 -60 18 -30 38 -36 38 -12 0 6 -4 8 -9
5 -5 -3 -23 17 -41 44 -18 28 -34 50 -37 50 -3 0 3 -12 12 -27z"/>
<path d="M4925 3356 c-193 -61 -315 -236 -315 -451 0 -84 19 -156 66 -245 35
-67 59 -98 228 -292 113 -129 148 -185 177 -281 41 -131 10 -286 -74 -369
-103 -103 -282 -116 -351 -25 -59 78 -55 178 10 274 41 59 82 94 137 114 57
20 73 41 57 79 -16 40 -37 50 -100 50 -96 0 -208 -72 -268 -173 -100 -167 -74
-387 60 -501 91 -78 236 -104 372 -67 250 69 407 293 393 561 -8 166 -81 306
-257 495 -123 133 -204 243 -226 307 -28 81 -25 190 8 253 30 57 70 99 111
114 36 14 122 14 148 1 29 -16 49 -64 49 -117 0 -51 -37 -130 -79 -167 -61
-55 24 -109 112 -72 47 19 112 97 128 153 45 158 -24 308 -164 360 -42 15
-172 15 -222 -1z m221 -1622 c-4 -9 -9 -15 -11 -12 -3 3 -3 13 1 22 4 9 9 15
11 12 3 -3 3 -13 -1 -22z"/>
<path d="M7443 3363 c9 -2 23 -2 30 0 6 3 -1 5 -18 5 -16 0 -22 -2 -12 -5z"/>
<path d="M6805 3341 c-31 -4 -45 -9 -37 -14 6 -5 16 -6 22 -2 16 10 60 -6 60
-22 0 -11 -7 -14 -25 -11 -13 3 -22 1 -19 -3 3 -5 16 -9 30 -9 21 0 24 5 24
35 0 19 -1 34 -2 33 -2 0 -25 -4 -53 -7z"/>
<path d="M2426 3315 c-9 -26 -7 -32 5 -12 6 10 9 21 6 23 -2 3 -7 -2 -11 -11z"/>
<path d="M7595 3289 c22 -25 45 -54 52 -65 12 -18 12 -18 5 2 -8 24 -39 62
-72 89 -14 11 -7 -1 15 -26z"/>
<path d="M3689 3316 c-4 -4 -189 -15 -251 -16 -21 0 -38 -5 -38 -11 0 -8 41
-10 142 -6 116 4 143 8 150 21 8 15 7 21 -3 12z"/>
<path d="M6302 3308 c-19 -19 -17 -412 2 -427 11 -9 18 -8 30 4 14 14 16 45
16 206 0 211 -10 255 -48 217z"/>
<path d="M6536 3294 c-3 -9 -6 -102 -6 -209 0 -158 3 -195 15 -205 8 -7 22
-10 30 -6 13 4 15 36 15 205 0 110 -3 206 -6 215 -3 9 -14 16 -24 16 -10 0
-21 -7 -24 -16z"/>
<path d="M6182 3208 c-8 -8 -12 -50 -12 -125 0 -106 1 -113 20 -113 30 0 40
31 40 132 0 86 -8 118 -30 118 -3 0 -11 -5 -18 -12z"/>
<path d="M6660 3201 c-12 -24 -13 -200 -1 -219 5 -8 17 -12 27 -10 17 3 19 15
22 112 2 71 -1 113 -9 122 -16 19 -26 18 -39 -5z m38 -119 c4 -35 -5 -25 -12
12 -3 16 -2 25 1 22 4 -4 9 -19 11 -34z"/>
<path d="M7362 3184 c-29 -20 -52 -66 -52 -104 0 -95 101 -144 168 -82 76 71
40 202 -55 202 -21 0 -49 -7 -61 -16z"/>
<path d="M6054 3137 c-3 -8 -4 -34 -2 -58 2 -36 7 -44 23 -44 26 0 42 45 29
82 -10 31 -41 43 -50 20z"/>
<path d="M6775 3111 c-9 -55 1 -83 28 -79 20 3 22 9 22 58 0 49 -2 55 -22 58
-18 3 -22 -3 -28 -37z m41 -57 c-4 -12 -10 -14 -17 -7 -5 5 -7 17 -3 27 4 12
10 14 17 7 5 -5 7 -17 3 -27z"/>
<path d="M5884 3099 c-4 -7 0 -17 9 -24 22 -16 92 -5 92 15 0 19 -89 27 -101
9z"/>
<path d="M3230 3020 c-6 -11 -7 -20 -2 -20 6 0 12 9 15 20 3 11 3 20 1 20 -2
0 -8 -9 -14 -20z"/>
<path d="M4289 3015 c-51 -27 -75 -88 -58 -148 13 -47 42 -67 97 -67 78 0 127
72 103 151 -8 27 -23 46 -44 59 -38 23 -62 24 -98 5z"/>
<path d="M3390 2956 c0 -2 7 -7 16 -10 8 -3 12 -2 9 4 -6 10 -25 14 -25 6z"/>
<path d="M3430 2936 c0 -2 8 -10 18 -17 15 -13 16 -12 3 4 -13 16 -21 21 -21
13z"/>
<path d="M3481 2893 c11 -19 15 -20 22 -7 5 9 6 18 3 21 -3 4 -6 1 -6 -7 0
-10 -3 -10 -17 1 -15 13 -15 12 -2 -8z"/>
</g>
</svg>
